<mxfile host="65bd71144e">
    <diagram id="HBxH9mM7cr-67tsBmQp0" name="Page-1">
        <mxGraphModel dx="213" dy="236" grid="1" gridSize="10" guides="1" tooltips="1" connect="1" arrows="1" fold="1" page="1" pageScale="1" pageWidth="1100" pageHeight="850" math="0" shadow="0">
            <root>
                <mxCell id="0"/>
                <mxCell id="1" parent="0"/>
                <mxCell id="2" value="[1,3,2,4]" style="text;html=1;align=center;verticalAlign=middle;resizable=0;points=[];autosize=1;strokeColor=none;fillColor=none;" vertex="1" parent="1">
                    <mxGeometry x="30" y="60" width="70" height="30" as="geometry"/>
                </mxCell>
                <mxCell id="3" value="ngr chahiye to" style="text;html=1;align=center;verticalAlign=middle;resizable=0;points=[];autosize=1;strokeColor=none;fillColor=none;" vertex="1" parent="1">
                    <mxGeometry x="20" y="30" width="100" height="30" as="geometry"/>
                </mxCell>
                <mxCell id="4" value="&lt;div style=&quot;text-align: left;&quot;&gt;&lt;span style=&quot;background-color: initial;&quot;&gt;1. right se left jaao&lt;/span&gt;&lt;/div&gt;&lt;div style=&quot;text-align: left;&quot;&gt;&lt;span style=&quot;background-color: initial;&quot;&gt;2.st.top bada he arr[i] se to ansvect me push karo&lt;/span&gt;&lt;/div&gt;&lt;div style=&quot;text-align: left;&quot;&gt;&lt;span style=&quot;background-color: initial;&quot;&gt;3.st.top() chota he to pop karo&lt;/span&gt;&lt;/div&gt;&lt;div style=&quot;text-align: left;&quot;&gt;&lt;span style=&quot;background-color: initial;&quot;&gt;4.st.top empty he to fir -1 push karo vector me&lt;/span&gt;&lt;/div&gt;" style="text;html=1;align=center;verticalAlign=middle;resizable=0;points=[];autosize=1;strokeColor=none;fillColor=none;" vertex="1" parent="1">
                    <mxGeometry y="85" width="290" height="70" as="geometry"/>
                </mxCell>
                <mxCell id="5" value="" style="shape=stencil(fZbdcgIhDIWfZm8zQAg/17Z9j85U606tdqz9e/tmZ0c0uJ47xP0I5JwEBl59bp8/1kNwn6fj4W39M76ctgM/DCGM++36OJ50NPDjwKvN4bh+PR6+9i/z74/n6ctp9H74nlb4nbmSKZeJCu5vngmZ6jzzNAO7cX8FVKEsBuBKrgKg9oAE8gkCbLeUhEoEQKSUDZDLeWYRKIl8MEDRmHwfyBrBG6Amyu4+kDxxMoB3jhwgYu7TVAsVkFcWCs4CTBEoF4RctKeOxHIf8IXYpikHikAIf+MNUW94AGSSaoAoFIE3AlOyeWU+p2E5S9yfQZcQILVuQOwZdJNoS9Ls3wA5u2XZTIHECqeJ9kDpSaauRiNVcAY1QhdBzeLBli5WazpkSsBLV25uRaqWRyFawTQzRRIQYirJzq5atkBqLfouwqUxLBepthWb10vrWZY6UOAeyKCCtDV625mm9gmUC4Wc3VLJMMIE1BsA2FW9JraVlQB7n3c9oMKhCLEvIM1zBPZ25/umNQ1tVEC2G+fFCC8g398O2hNQuQlVu752DBfA+q0ptnqO5JFmeuIuo9DY7KjY71UxdJV4EntifPWorW++R/dC4t7V3DlIB5cHx2bc7eb3yvX//QNFp+bHDT/+Aw==);lineShape=1;" vertex="1" parent="1">
                    <mxGeometry x="48.9702643848745" y="181.52590050643056" width="2.670022726923175" height="2.6658492664901132" as="geometry"/>
                </mxCell>
                <mxCell id="6" value="" style="shape=stencil(lVvHch03EPwaXlHI4SzL/6EqURbLsqiiJIe/94xpLB96dhvkTaan3yJM6Am4S+++f/7w7f4u+u8/nh5/v//r4eOPz3fpl7sYH75+vn96+CH/ukvv79K7T49P9789Pf78+vH5v799UEn91x+Pf+ov/P2Mi9H1oKjo/3n+i3cp/veHX5/lvzx8XeVLW+SDS57Kx7jIR5f57/u0yKf5A+fywbWxyGcXGpXPfZEvLg4qH/IiX11m8t71usg319j5eFfX8+9uJCqf1/MJ3nm+oLgeUAgushPyLqw7CHJl5RoQhhugEsm1QAF91YmQ3eCACnuoLnAAammjaiqA/7d4ALorRO8EkFa9kL80fkpoCMH5SgF+/YKaDlENWXFfT0lsp7NN96maB0CMgQPyqqxiDZUonwA8bLq7yC6uuQJ7kGPNFAD2mcQhsS/IilcHkKIbbA8VLy5l19jFlakIB6C6wvZQXFotLskpdQrw8AWxQbakjF4pB1c4oK7HmtN0C1eAvJ5SztTxCSAAoDpP/JI4FdxDc5HZQ3IVvtCn0V4B0qoaWaycqUaaKz6CiafRTTwpqEaReMQ2HdHiigRgtuk4ncoBSNOkzgFh+uoDIHfPHFlAbS2i8GzT3g3YdJ1B+wpQVr9U2rz7K0CAPXQKGOYajpB0IZ/XBVVPnb3E8FWRaqAuo7sKvx/pCYl7AFIixkE0u2FkqBJwiXG2qWOHfKH+RZww7LdNGncqL/e/2k3tlLXVaYaHvERTsh5hB+t5Nk9dhSjwuv4WqLcryBZapL6rzKB3I9/J/WZkVC1RfRNXu95XExsm68+uwH6LKyRoinNf9a1V6ucyhszWNvLgtFqnjle0Hc5/0N83kaAfLuZCPoF8oD7xYBCHfJwadSFf1/X3RAlwnOT1kD805EIeaFfn9hvQHnvdyGPS0qg+m6Srdx4BXF71oY+psVfy6/oHz2IDBpghXJyRxpkL3MhXFrZdWe93RJ5+IOsV+U5/H/R5JM47UN9EflB5SAxG3twv+J9RaDyK87QP+UqzrYTxXeQ70Yc8vf0hL/GIyBcsgog8iy8N44XIZ6Y/fn7+FsAUOk79ugHQfFRyCAtgNK5NDbgF8LpANHtgRqley9wCW5KWbrIBsOLJoWW3x8qqJ20Wb24AiW1aknBvACxymPqMqhJT7YBcUQCMe6Q02fYtgC2pGGsWADml1E7MIZCbTqYCpJsm9p8jErTNsUoyGc0X2MVlQxk3qiG5IcaERit9kupVA2DqLZlbNcfKDEgTMfsFtqRq4tQG0DGx2QAk70kFAZUx/YhUSgFk05KZRGPTjeUG9cREWfCU3KQa1WBsSpINyHhHp+VHyR78QAArSmk6kBDA0nzh9+hmOk3CheCjm+k8BWzmC4PmdELZ0RkPF1iSLAGlIIBF3W5ooQJYmhwxj1UAuWmh4VA3VgC5OOHhqEubTZd56rfHyvbQMJfa3INQ62q0dRCLE67sLYDokpLfbADklIRthmYARPmGSWgFwGxa+CD6pT5zxHPAwJRcDYgcqwCy2TSrTAsASXenSaEArBOgVayBhTU9Vlon88ZXDlq40E90BASirroJA2A2Kv8b6cyYZdgrAAa542our9rYKGtovZzJa7/QsTS920PHoqsCmEF0wx0299CxxKO74kuqRvuYMukerMlxAGYcW4PAfGBrcpgEbY0aE+9OC7WqrSaMdv4Fu2nqXAfWkjb+/hTAQtDJknjcPdn0mO72tcfK63MnF7c10TcCqmG6g6a7WvEwgLoJcmbTrGioYdQC2JL8yRdYj633k4tjXFrIBjLdQdW7V2xSK4DRmYy9f1VH9oWE/doxKFtX0gfzCy9h74pXInkYtCUszNXbTRD9bmfumxVAhX2/TZmE39uIwtJXySDCm8h0M+e6Ya7Nm4SAkzjJsyxNZAZRm6mzdtrHqMWwk04DtWSjwXyBZRCS72KhotPaSfUmQe60OnOSs3da/9GqgKG67OJKPomKFBAN2ei83urnQMQtgDWs+gn7Zjat9R9TRhisJJVNQsB7Gjka19do0TvZuNuoE0gN2zIKIE4glZPKBqsKpGSCXKOEKcWTQjabMUrepOCNJmZxnHyB5YqxmZyd33QsM1m9BbARumyccaeUTCvfJqNm9nBSW+9zPOa11XvuNeyMkQLYMIzpUSqANRQ8Tm5uAO2kisBWVM7cGKtKG+Kw0QsTfRofbjuxf9Z09LMEeMhXOnRic3XeVPNmPbxp502RkjcFPQ5sbZqO3oRO3tT0OEQi8oyQeFMY401ZW24MNIR4bLoPT4u4Hi1Mm9ZE/71pcnfq3b0ZYuDxxqNvF7LOm7hQBuxlIw8Rtu+axGCPQu1ZbmGaxDpUwYckVv8jvJ72J80Qg6cpZMTMpR19gQv/A+tvfPwwob003uIyQyqtbuRxaKnQ/Sb0zy3T80zIrVui9mi6vdoFYZTOrD/QRNAk8NqWoUNauB5P41fBBslL/nIhD13V2ul6zNxxrbPeeyEPPOgl27mQBwpRM41HDTlK5UNpJr7rUCNLwzGprnzoqpvz9xt50IcyeHEQE+SyqQ1iMloanxM3AV7nYtmUkDfDwGWe8RWgwRYyLXqFgH15nR5mgy0BjbJsHouY9zol8BnriLSjeFp8DNFMoo8ZGV7JdPNm/D5iDy/z+YiQUJV01p2YWjC+OvOBzmDIrs7r8+F4GAnWFwEMkJEuJl7zEgBMYOirBg4A1UiVD8eXWbY+AJs3BwV7Tfr2g226IidNgQ626OuS1SlFXtOVRA5YV9zkZQ1VQ9/gcAD0UjXSMV0yuaWEdlY1Dh37ZfpSib8jAiqu5JM/bYJyf+C+W18qrRenf+EvlWDWRo6BFfpCR12Su2fpaOg4tKyvchjAzJ4FTqgEANoa+GNLfcS2BpSwUW/TBA9+94jNPG/c7Nk8n2TKbZPSSgcxNelaN1D481KPt5xprVXkBzxHo9asz0vXK4s0VtnJZX5hdpL3yIIv5RPIszazfX7radgReUgSPOXAIj/w9zeVN5gU9nSwW58nF5Tnz5mTWT///WLWw9cPSf7mfCK2fTytG6p8Q3k+w2ueh1P9eftz8o28/OPl7fqnhy9fnp++3/5/fOsuf3p+J5/e/ws=);lineShape=1;" vertex="1" parent="1">
                    <mxGeometry x="37.05966367603435" y="182.40979943973662" width="59.0020557840453" height="115.82836750650242" as="geometry"/>
                </mxCell>
                <mxCell id="7" value="" style="shape=stencil(lVrZchw3DPwavaJ4H8+O8x+ushypokguWbn+PmA2nCyb3ObOmzSLniGJqwHwwX/68fTl++ODMz8+3t9+ffzz+evH04P/6cG559enx/fnD/3rwX9+8J++vb0//vL+9vvr18v/3780yfbXb29/tDf8dcHVKiU0lDN/X54Y8fnfBz9f5F+eX6/lg+Q0yFtJnsg7MaO8k+huy5faf+7yXkIh8lmsGeSDxEDko9g6yEfJTF4/P8pnMZbIO/F+kC/iyHkWK2WU1wNIVD7Z8fyNFP6BCAAnln8hgIZ9f3ITMJqQVSNhOlPAuGebuhZvAkajsHm7JACU3SkBoPnBqSWpI+TNF0Y9qGW7zR4AoMfKXGcGJHHMVmdAlnwOUMVuND0CvKHhYgFQaz21JO+7h9wLiGe/kCSd27TGgHgKoFH5lKbDYY73AryYjXkDQOPqOUCUekrTIYtnkXgGFEmnHChUqaf0EK24U3uIjsclI7WMAM9tSaNQHAFBKtFDruLGuBQTddGcMZBFHltznJZUJJNTyq6HrQ5IRgzRdKp4rMn2rLoGREyiyUkip6Q/2zFlJU+PVbfoRxqg32THGqOYPAKSBGJ8ajkeAFkSSShqzAb2UPs31wA9JaAyhi4pOCmjHrKlWVTDVh73kD3NohpJ86i4HOimNbjnke7lJIZEPs034A9q8J4ANGfGkf7kQhNKS+Ow6UoppTILCxTRUL6kZCeOitPAk8mxWnXRUXFKSyP7gkdWqbz3P4NfA9SBxmMtoRPrNcCiHgoPZEproRBQ6k73YNBFi0Y+Ykv2sP4rAAtkbUmjaWj14YlpKACsVQHMgRqXH326FJrYFVATAiqJ3qoHiEut4mJ7sP0QjwJFozeJGk3TEQGRm4YfNV1t95CbgIgAxlvbksa0Wx2tctspAcDzJRnMcVooszqxWWtCQCVRwx6nfgCOeL6uvDF41ySF6K32uvmQz3RBFRsBtVIqM7+/8ipRqkN55ju62ozybP0Jc1WTJ+cZMVpYYyiHDr3Mvv4A2bAycj/Js0zVCcj1ATELklQnBTBHljQpINH3zwpgrRjXffZKntERvzA4lqNid8BrefL+1MuPO+WnrLxZT+mnd+d+9W2Tftl5VuRSG33VXj3daQ91SgTc3soU1rk954U9M3+Z6OzeIeP8AaIwv1AAiygOK6lNxLJThOYR0S4MjkXc8/K4Hp4B7BTReYaxvRa4M4OZrp07U6SZAhbPwQaJ+ybJG6ROGxZxWOOdNMVMCYDzIIOt7w3RMpODcSZnkDVtqKLyaWC7nIvqaj3KM7JrMIFt2LTBANHoOis5sCnQ6gHG4dD+W8FB9OVw9NAqGvJ+jwlJSybWFgyYAFTeEHtIU1mppSxNYFjN8G5Xo91Qa1hewgX0GK2MWYtPK2MopbX2Zv3lZqNjjNDqnvU19VCBdufcK9k1IPf3HQDeCPVToZsDdWPvJcKSPF1S61fDkixNNL6ip+WjXLnZKRqXlEpng2tAQjKRMt100PdBTzBRdhYdlqEp0vZYjJhukjJOxi+PbHrVdQzM31RN0LHj/WXdItiSfpNF1FQxJUTeI1dDgCKldX9Zf9l1Y77uL5OkrMYMA+CoUYw1pAMea+uRs8LvmN/c2YVfALgeZsBmkrAAbPQwA/g0ZAHgYWYB4BOdBYDPjBYAPpWaAZu51wLAJ2sLAJ/dLQB8OrgA8PnjAsAnnAsAn6HOgM2UdgHgc+AFgE+aFwA+y14A+LR8AeDz+AWAT/xnwOZOQQOMwXhza2EB4PciFkviNy8aYOQam7sdDQBdL9ef3AI4+AK/n6IAGPbVTm9uyReoSnpWXctnbAMlmkLz1KaJuwltGNcT+nWYtbzrGjrcmRaRWiO4MeG63pZYy5dJxRLYhS6HbTst+4jNaY0MF5wMzf8qX/D9hrWJA7JbPiyuEaskQ4v+mrAK402jmpG/bOXL9H4S6WrpwfxKnthnrUgiDU0fdeLyhk7F6sFsruyBTj6mNgePo6dvHG7l9Y//rzd+e355udyOvP4dr0Pqo8tVSv/5Hw==);lineShape=1;" vertex="1" parent="1">
                    <mxGeometry x="91.91395816180392" y="183.51134067579477" width="9.068955674977587" height="113.92564681109648" as="geometry"/>
                </mxCell>
                <mxCell id="8" value="[1,3,2,4]" style="text;html=1;align=center;verticalAlign=middle;resizable=0;points=[];autosize=1;strokeColor=none;fillColor=none;" vertex="1" parent="1">
                    <mxGeometry x="110" y="180" width="70" height="30" as="geometry"/>
                </mxCell>
                <mxCell id="9" value="" style="shape=stencil(lVjZctswDPwav2IIghee0/Q/MhOn8TSNM457/X2hemiTkL1t3mQZK+JYACtt5O79+eFtu4nh/XjYf93+3D0enzfyaRPj7vV5e9gd7Woj9xu5e9oftl8O+++vj6ffbw+L5XL1bf9jecKvE45DoBAWWAy/T7cCaft74/MJ8LJ7HQBaSNNknykmYM8U22Sv/QFX7VshLpM9CyW9DahKeXaIK4ygRu9RjKTghJKo1hnQKIEYcqMwuyRCWgCAqTiAUpXbgFQozi6lTDkAAJPIXLZzYa4CpFCes5QLNRC0RKo6AQrDoI0IKc4AOwHEEC1ongCViUHholCYs1QzDJqNmw6gFBgAzOM5Sy1CtrJxaaZ3y1TQCYlCngGNcgUA8TFYCwoC5FWHChVAPjvBjQxt3clbJ7gW1Qo7jhuxrE4ALtnQStUDGARtLS+rExIin1BmDyiYfOqyhLlkgJQ8QFDQkbh5QIkwS25qGAD1tE3Sph6gmEsyBz0smOuI6IfrcgRiX6BcPKAC9jVS9vZoVJ63x2Afob0bAUaMBnLUeo0G+wzmpAXMK+ZF1D2x+zs2A6pBorIKARatrkbGPwDndTa6hJqBqa5OENw966Az7s9WPEDxBPBZMmLg/lwDMp5ifnRr745bc7JGD0Dq6sMA456zF6ogSSs1uSwf+Pw6c3vZbohIvmi2PhPIUCKeZ6rtZ0QjI/Ycb7VmRqst9McNEoPBDF7U7NwJJmLg8ix9GQ8yqSBdtaqBCbGG1oJ45WZSr6Dl2TqNBzGJutnkb5rLZnIVlUFa93gQxBkA7Hmu/e3MCgDmsVvPFhUjja6dyMNrA2oFK5PTJDY2C34xcZvKyIL0ba2rboaSxLivs5bMFJC96bbZPlAD88vs1b9LIj3SzkS+2CdkX714NkGDNr92DXixR72pwS+dAFWnxj6rBnvACE39VXmwR/5cySeql6lq8fFG0APLhvTxCmgB2xXJ8yGD/F+U3MUerrOPfoz4D4BdXL59PO1eXk6fTsb//bcSu3X6ziL3fwA=);lineShape=1;" vertex="1" parent="1">
                    <mxGeometry x="159.0843381270741" y="201.04051961743255" width="2.8912597488480243" height="23.05358518788917" as="geometry"/>
                </mxCell>
                <mxCell id="10" value="" style="shape=stencil(7VjLctswDPwaXzEkARLkOU3/IzNxGk/TOOOkr78vVJeKCMmb9tZDbraEFfFcANzx1fP9zdN+l8Lzy+n4ef/9cPtyv+MPu5QOj/f70+HFfu34esdXd8fT/tPp+PXx9vz/6WaSnH59OX6bvvDjjJNMGiZUCj/PT1Kl2H4/+XgGPBweFwBWCjoAuFBMAJCI2wCQSE0vA5KuAJUEAeyEOABypgxUikolD4CSSCoAMOVRpVJJwQmNch3kNUMTKtUxClqIgUJKdbRYLSwgaoWKevlcLsubtuLlFchLz5mFfAH6M4Xg5ZlBAKiJ949GJB+K938F+gQSHuXlDXn/fYb+CSt7E5WA5JOzN5JkJK9On9CL6EK8wpifVgAJ5LPl2/h9q7AI9ImJ4miAlJ6yl0ryz/kzrWivuUtFn1fEBVnCThhtNq9FAOBIdSwasyoLAJTOOrNXYVFK8lQaO21syzeS8ftzWm0XsXHCGIQESaVYDo/ylRIoytJ6Ts76W5BRFgnJSBMWFORRbb4VsD0BdVaZ2qhSjlRADGoldq2AIbO0ROqoonQy2AY00tGGlqENMazYohWY2nZEHROjKcwkA7haaBVWm72WseHYJxipNPP5AlCRm2yKGAELP2wjxMd6cjXSyZJjZURCseY+2SzchEJnyeEGi8kPaE4wRhkpwPyQkNHJk5JlU8Q2ZBcIgbRnr8XlBsPhyBQoyQMisqGs0pV7P7qUTE1XKgFmsjC5ecGsQlRsiVDYuzWgwLWVSgUbbQB3gsKWawDX4MyqhAJXPTPZJyJgV1NAV/WgCFBWuWRWIbfmLRZAAOkdZwGAkWbP3+aGgryUOkcs4oBG1W0AainWD0aVtEKaqdF3uTJ/Yrstlj48zl1OYKe26dEBbPYQEOkyJ/PceCMc0Evws8PrzL49nCRPMzFCG2Su4AUgoh2j+XqIeGng3Kl3tkFgTXPwa9607AKjba+qo0q2CwtoKOZE13dzgIunzdEe0OCIZautrpIPLc/vq+37avs/r7bZLyU20CMiar2e5oLRnrHb/hd/F2QlWdA837q/56Lnt1gijibbZqmYhxy92xMBNczV2zClIQKshhEDoJ4moRfhYttWRO/RDyMGyMBo62C1rQDArVMDYQ+oCJB9IzejEXUZwC0YKcEJTIxq3QkMl0kDuCnyjRYlujI6wwVjuqdxgbONBN1i2G7qUsMID53wr1fOfwGwH6833HeHh4fzBfnyvb8Rt0fn23S+/gU=);lineShape=1;" vertex="1" parent="1">
                    <mxGeometry x="159.24849612930558" y="201.42512701581603" width="5.974701652187167" height="6.396808541908959" as="geometry"/>
                </mxCell>
                <mxCell id="11" value="st is empty so push -1 in ans vect&lt;br&gt;and 4 or rather the index pushing index=3 &lt;br&gt;&lt;div style=&quot;text-align: left;&quot;&gt;&lt;span style=&quot;background-color: initial;&quot;&gt;ko push&lt;/span&gt;&lt;/div&gt;" style="text;html=1;align=center;verticalAlign=middle;resizable=0;points=[];autosize=1;strokeColor=none;fillColor=none;" vertex="1" parent="1">
                    <mxGeometry x="91.91" y="210.47" width="250" height="60" as="geometry"/>
                </mxCell>
                <mxCell id="12" value="ans vect=[ -1 ]" style="text;html=1;align=center;verticalAlign=middle;resizable=0;points=[];autosize=1;strokeColor=none;fillColor=none;" vertex="1" parent="1">
                    <mxGeometry x="95" y="275" width="100" height="30" as="geometry"/>
                </mxCell>
                <mxCell id="13" value="" style="shape=stencil(nVjLctswDPwaXzEkwec5Tf8jM3FqT90447ivvy9YDVUBqtZ1b4qDFUBgsQS044f3w9Pbfhfc+/Vy/rz/fny+Hnb8YRfC8fWwvxyv8rTjxx0/vJwv+0+X89fX5+nvt6du2Z++nL/1N/yYcI5i6aDgfk4/hEAp/f7l42R/Or4u7JliVPbeUy3b9pU4K/sMX+8DRa/sI/kK7AtF1vFQ8tv2Ej8nZS8JCMC+UXPG3jmQnkw123jatn1kytmc1/G2fXIUtH2llIF9pqjP6xMVcOAcyGkHPSJw4lxGwAPAgQoocfEUzZE9FeChJIq6BpKFEgGgUjWASg6EVIXDTbM0UgYeahxVnQGNPGqDTC0ogKTBAWJXeZ+zgAay1Dx5XekSKIBDNx4BLAAMuNoiVb4rJOn11RkCyFJrtpuL8B20gwDyOq2g/wVQzKH5VkhGAEqmAjquA7QHYZcHZ/BulpQZkQZbNl3oDmqOMk5T1SovtUQ92tOkC9EKlHkBJBOSlAZ74GIBDVcu6Cy1Ooq/BXD6qmo30lqpmUMH2KMCqKbUhRL2YAEBSt86JNE2D4SpH9qoQCRGHlZplQ7KGGAKJz3KuA6GGgJIKK0r8nVhwi1n6N2vDOzBNFARtgLy/a1HJa+YrlYGZkX/R6ERgY645YyUid42DDBi2YuPK2eHK4fHn/9ArO6IznkU1OoWEsB995xoGRQOP1psAUCVkMquPSDJl2nAzBuSBtSlfd4wh45jkN2caPQcLUFWNGTVMRbOAIbkkBZjc/UmOA2IrrCZmTIE5JnO8xhXqIEBpc+uZnkQggMd6NOxAfgx/m6O35oazENKNud7rceyUaQbC4QBCJeAh/WGEmTCv2sFkp0MSVnfsVYhobu9L3FmJXBjzdlYEk0ZJKsRFJrH/THbNzgmOit8UscKuO2G96U9iMfZJVfs0S29YlGs8PpxVpCiVAzwWiRXN47QEG2hYq/zE91YubbsNeWEtagxne1LqS/aWp3dQRmPGG6o7YKgERB0XioWLeNh/lnnv38Gge+/76PKbXt5+PMF5+V4Ok0fgJb/t1985KfpaxE//gI=);lineShape=1;" vertex="1" parent="1">
                    <mxGeometry x="299.45704916568786" y="247.7821420395668" width="63.158037351918075" height="2.402732561232769" as="geometry"/>
                </mxCell>
                <mxCell id="14" value="" style="shape=stencil(lVjZUhtBDPwav6qk0WiOZ5L8B1WY4ArBlCHX30cbZ4odrd0Ub8vS2pHUOnq805uXh9vn/S7xy+vp+G3/63D3+rDTT7uUDk8P+9Ph1Z92+nmnN/fH0/7r6fjj6e789/Ptglyevh9/Ll/4fbazRLUtVon/nN8Icf734ssZ/3h4WuM7yYxvpHwdXwqxzd83MmBQhRJPBolJEjCoJDIbGCW7btCUpE4GylQKMGjUdTYwqvW6Qc/RpczUwAm9Us+zgVEDWRJm4jlNxtRBmnonm4+wQq0DA+cpTQYlwag9TWWOurTB5WXmOtUyGVSlDJgrndLsUm3QJaukM9XNqQHl7WnX+YTmZ+p1A3WP537oCtOaEvU5aCc/g9qQTCV00Bv5Fy2YdGba6zEJwneOIRjAy+iWFZ5B6SWyuX16gsXtKd3iAct5tPvKnwT8ybGdF8pAvBaLyPNpgGJvnOCPUUZVuom3kIKKsDGhVxUkAJ8pc8Tj/JeAx33sY0EiXkH+hZpGPPJfLsRbwfeZ8gbP4PveTS3mP4EhsRm9zq+CscWj+1b1839oXMGXHusTxSukGzzKZxoTbd1fIF7/2hYP/FHqG38Y9m/d9CPur9jvGdbbZpE5XwL70QK/BfpvUbE4vsN58jG86MbA4IBbKiJ0wDuMCVlQdR2ujKxxE/tizWBPmg+tmWTf/gJIduEYFquLgwKqtJY4pl1+CNKBeXT5SuCgLHkSy3yCR6VIQm0mY+5wE3jWgxp3QcLgBI8h9JorTSRwPOtpPsG1LBITnvXQbamPNFwmrsYbwrKAQC151kNpSIeKyHxgzMRJGivucrXWuPENChzH55nojAVIjTeKd1RmjZcihQtk+f7sv0sqtPBr3AgCBY7jw0YW2Dm5DUIHnof0v4zv8T7EUFQ7vrWARwLTrz5lgwf1YDLq6w0PF0KK/PJYKdfwH7tUv4v3h7cb/P3h8fH8A8D6//HG76/Ovxbo578=);lineShape=1;" vertex="1" parent="1">
                    <mxGeometry x="353.09333002479684" y="247.0666210965843" width="13.174284836406212" height="13.234894494157055" as="geometry"/>
                </mxCell>
                <mxCell id="15" value="" style="shape=stencil(rVnZbhsxDPwavxISdT+n6X8EiNMYTeMgSa+/72wNbSzKO0aBvjmOZrW8hkN6F27eHu9e9jt1b++vx6/7n4f798dd+LRTPTw/7l8P7/i0C7e7cPNwfN1/eT1+f74//f1yt5xcPn07/lie8OuEi0VyXlDqfp++SeLa3y8+n84/HZ7Pz6vENpz3XorfBoQmLo6ALJoJIImGAaBOmiMAJ3U0ATbksA3QLGF8JTwikBtURQ0AXiI2+Cpp9BLc0MgreTwvDYAYpbEbvLQ6AvgNTWoZ4xxp3KqE8fmpSUnb54tUHc5nPJ8kUhUdDc5NEolB62nZz5cokXnUSRxfqFRpkQCmIFeVpgRQetKsgCq5kjRCkP0AaL6/5FZmuzEIDS/JAEmqs4BAvBQno/FKmXgJWVYMwPVcvwhIxRJGbZRhkDdtzNRaxBWSeVMp1CiJGI1EiCbSiAMJXA3WhlL6nZcBRcrIYchWRwIHJ5obUA6VlQNYd/RSTpTDPhJhBYD0CMPghjYWUEqdE7ZsSAaAGwhloFzCSNwxiSc21CTJkJ7jgUN6Gx7OlJUKXmB0a/BSCU3mYm9YmIokH3yiIwks1EmMjtXWNACJ1ANaehqpFQ2P9ZKYbbcCgNkAgCEyjb29XAaAl8bAaZBM3IobrJeUJh8AhjXU03qAW50BONqAwHzRW4Aj6Y1I1zgByA1JJ6N5iaZgmzSMZtyKnm+1lYoncQDAyEMELhAiWwDmhsj7QxQ/qbdCIg2j1QQudy7ccquNNHoSAzjJzQIYayA1NE8AlkulS5EzgPJ6qJPRgVVcFp+sW/VKiZob4lUSMDcojQMAeSpRptOX2WQq0cIAUHjJAjwrIGc7kG+dR/4PoMx072l6owNZQOA9bhKJiHQlJQp1ZIms0sAtstaMP9pb/ZbWSAZQuty/DEh9Flkbu3adeRlQbXoj9oWpmWZvAPEwCefdStarYPL90q0rTCAgDjyhjZbt4FoClffwq2lykLIsENChpgVByjri17qqnXPxTYgJuraMNkAGBibvSzdxBQS6D8DcacYsZEtmfdd3r6+AK4IpdJm6Aho1OqwvsLKA460dFWb0Pa6oxE06Na1WqUz0EHFmuMydDbc2CH7s1C3yUIufJj+WS6CZMTMW+U4Crb0pr+dd5//LBvRZYS2GRDcCzuYRRiy2EJjrn89w0xoKoy8LgE6MpN3Dl/O6C6+V8nIXZxsbFiPdIqZclkFqywDDkrKNSbYexbDEJIPOwirR7ol/m5xD1FmMMXwZG3yhhRmCHfjghswA2dpQuRDzdg/l+ZihNu0cJYqlUao5z3ZKIDszHUIisfPRLks400FHmj2Do9ubRahWc55urHJfc36cp6qzWC3i6VIiFrtNUs5y1fYzpQuDOC0+A823ZU41ZcwH4X9d6F89jw8fvx48HJ6eTj8+nP/f/tqAr06/VITbPw==);lineShape=1;" vertex="1" parent="1">
                    <mxGeometry x="130.4225884230495" y="181.21138976847138" width="2.7600758063619044" height="3.115686954430415" as="geometry"/>
                </mxCell>
                <mxCell id="16" value="" style="shape=stencil(lVfbchoxDP2afdXYlm96TtP/yExIYUohQ2ib/H213RrW2vQsvC1Gx7odXTzww9v26XUzBPd2Ph2/b37vns/bgb8MIewO281pd9avgR8Hfng5njbfTsefh+fp9+vTKDl+/Tj+Gm94n3ApUIojKriP6UQP+O/B10l+vzvM5T2xdPI+UBQAcJRyr4DJBaghug7AeoXHGkoPEGKgIQpJD4iVBPiggH8xaYBUKUYICL4D5AKjNBpQO0DJ5CpwmltMGqAyeaChaF5DB5BIFQCqsyYpQIBJtVI2gEQMojQa4CxAQOKkUumdlkw5/R/gnSNnVGgiClRhUq0nAYRJnYg9v0XIAbpqmIKzgITi6iiyBaAwFU+S+hq9xuFTRGbK0aqoqOaybQMKYMRXZVO0cS2ohArVvkg1cwIypwBTEQrwuEir4WuGfE2xWTzja84grL4ldgbwwIcslE1YteZAHkq1jWYEAG7UTCFZkwKghoRFG0hUEKAsfLiQ5XPAMg8FtjK5tPcZl9BIkUsvnZMPaXCtW8/oHVFRc6PavIDAHC2xGXBrjZZFt1xDKNf6vqFWohrVkdJTY2UG6W39/StDjltfvHGKBjvXV8a0t2N9ZQ/wNj4ri8bi/pVNxltOrKxKi1mFVzFHpR88Hlb+Ivq6yYHRqYO1F3dUQa785barfATG+2xnlCMPzFHzvTPyiPtBGrVuk+dESe6wJ/rWom7zN+pmw3fEc7ly4nTp1lzKcDsb7t77V+X14/rIeNnt99MbZf6/fZTo0fSg4cc/);lineShape=1;" vertex="1" parent="1">
                    <mxGeometry x="138.35677796394202" y="181.10736938682115" width="0.30158470313651076" height="3.1041433232214635" as="geometry"/>
                </mxCell>
                <mxCell id="17" value="" style="shape=stencil(7VnJchNBDP0aX1Xd6k06s/wHVQTiIiRUCNvfo8G0Pa2eeSZHKG6Oo+dpqZ+eljmkF59v33y6OXD4/PT48OHm2/Ht0+0hvTwwH+9vbx6PT/bpkF4d0ot3D4837x8fvty/Pf396c1iuXz6+PB1+YXvJ1wiDguIw4/TF5mK/vri9cn87ni/Mo9MtQz2TFz37TmQjr9vXzRgXyklZ5/jvn1iStXZhwDshWJ5hn1OVMTZC4hPFqrj+RM14G+x8I32Qgn4WzJlHuxjpoQekElHBzhCDwwQR0AKxAhglIgjQOGdlUDFcU5IAIlyIx2DVASyLpvT45FqpYIAsbOyA1oiAWE1HjUHUFIQpVSojMSTDJlhzC7jTYv03NhOHekn7gCNFDIAFAoOwDg5gw+rGvnAE6Jls46A0vVmGxCpRA8o4EitP39lj6LKnklaKRRkz9Pv/86nbQe8XCznAcSLXX1W9hkEyFIn+RtQkGuBonp7dGOmhi7+pl/wPP78CXIuePk1ymF/8yjvxmmB/ip7e6SnkbK7r9AZssOHmLx9BXxgEvb2qL62zsa1PeJPohS8w6igmcdNPKAAD0yH8qQSCaSMia/3IfWSsl0PSndxRdIALs3EXIIHCDhSq9TcNViaAZpKnfKg9kK9CVArUcUDEgOATEphABAl1Sl1KlXggwFcXdYGtc4ArlczAKJGDHP6W38F5NceIeoBSB8XJ9wTlPhKmLIHVJBxy0VUD1AU19b/fW7BAm4iDZHYPwJ1F3azPkkVysCFOytAREeqU5ikNyi7gIlNigGsHgAJfqbziuCCAG0jIwpO0jYnKbpqmcJ6FeD6yGtH0klda8/C3QziKayI3+e+dH1xOEe9lAkmn07qauRD2qdT0VLY5V1E4k8TaBrzrubosxFSeme0VhpADqtCvrkV2GzUOnV7AsuWVdI55xqq1dbdTQB0ddYN8FQYETk2OuIKS4R1NEEnADhS6w3n2h50D//kCADi838E+NtGgFi9fUPnj1NA7UCIcGXSIYsx8DhqV53zKkJhZWZjwOizyDPXftL6Im0bMNXNRY6vjDFjWOV8MXsLG9eONOkbmb2VUHUrIYadZ45+w1NL92pvsspjqpUGN2259rFotWmLaA8mfrIyr9BkVUIX8/N6UaE6GqCNYV0EFqS/AVw9MP42QA3zIfn+nAQBqlewBleqmf1MUiiA3192zn7Hjnpzo6ojEh6HLXladPYonU3xKjt7tDOziuwUrPYmYDs+U6bB7W7yU6fA8Sv52xW4zuZeKy7mDSQxTzqEldGPggJLX+y6fCEanK+9TlurAxuJPCYKHj2iXw9U2O7GfokX0iM1tKRmZ46bsjoW4dwb0x0SPOut1VVz+3B5QfbueHd3er+2/r9/oWZfnV7GpVc/AQ==);lineShape=1;" vertex="1" parent="1">
                    <mxGeometry x="149.93412972942326" y="180.26772535937351" width="3.913258861842284" height="4.138015480420806" as="geometry"/>
                </mxCell>
                <mxCell id="18" value="" style="shape=stencil(lVnLchw3DPyavaJIAnydHec/XGU52ooiuWQlsf8+PdniaAjOtss3aRY9JIFGA+Bc9MO3x09fHy4pfHt7ffnz4d/r57fHi/52Sen6/Pjwen3DXxf9eNEPX15eH/54ffn7+fPt/6+fNsvtr79e/tne8P2G0ywlbKgUftyeRLH2/4Pfb/ZP1+eDvUWpZbIPEgKx7+Pnd/tI3p+bBJvsk5R6374ksTjZm3RmXySmyb5KJvspXVKf/RNEy31ATRJ1BqjESAAm2a1QxBIBlMVF8Ck5MwBpPjOcFNgZsmibAY0DVGqeAAo3EFrU6MOmCAxZoTTR2UsWJBG3Fhu82QE2XnHOvC5tDpy1sclzQPaBy0gOcugMrs65k7ElBoiS5i3lOmJ/DihS50PjSWPpUKXbAmBsVbEF0Bk1kEDVn6GQFZpJcys06ZkAuuSZ3iUMkToFdBWd2QoV6UQEevH5ULJUBmjeS+BvI+Trffhkl6VEdTiG4IV1S3NCJixRZzIhNI0BsOXZr01pyvUqaT512x13DshD6HZAF2Ur7HEaADwJjEz7EXeAiSkBoB7OXkLwjZCpBSlzUsNvrCJC7/ssG4hMYCWoSTUPqEQFSvRJfWDLuW5ALJNfgvHVihd8AIzsSZHDwbupkazWMHTo6FdSFhPI6bYEZSKhRoVy9kky0co4mHbkHolb8MLXUfTIiZeE7mE4+d77zduz4hCGih6SzQgp9tPt9oghyTUdgnWwL4x0EtTbZxLgIjkv72eVZzD4cN7AUn+c7mDP+IBfl3gl8v7uO+0eaF3rQ84P/CkkvuiQnHIlup86OrSDPWu1V2VMlA/m+fMT+7T4B0+IBkVfxbfzEj4E331t/iTnDZ6fW7zIfsLiz10B7ti7BrV1mi/RF5qNz4Q/ydeZLV/YaCc5enuej6Es9sQ/9UQfGtnPr9pvG3KCm6iAalqKmHIPYfRzZRINPElJq2PHB0BlOWYLIPPmoPioYQVW9TDbhe4Pzdza4mj6DnnDegO0UG0Raiq8dejsDsjUrVshcoBES0E7632Ztqx9I7rrTJITgDRTo+79yDlgKWfbLMa8lMasuAPQyvKx3+ZDY8xRltB1THI7INLLkffh8gggh7bsO1OMasytlrxbsWbhK+jMVkzdbAbBkO9GZut0Asb7+rylrRlmfc5SaE1powafuEhv3TNhK+LqVEMzvWUDc6oDRNoLQmZccwp5ZodedQn1hV1SAeAu2hIvtxjBwxyHWGk/tXlpzriYxwhwLw5uQoiYEIjMINJuno38Zi5Hv6VCp1MzP0Up1QwUrOjuUsbQcF4Ru6dq5lNd9fN4HmE/t4dgFP9+4lDQuHa/f8IJNe/PTOdeXXrUfRA+t1fJ5uxZfGHvZjSlLaeqr7VKGQp719MmOiLAvnt7phPwT3F30/Te61e/JvzcHn+8f7r4cn16un35OP7uP3Xg0e0ziX78Dw==);lineShape=1;" vertex="1" parent="1">
                    <mxGeometry x="159.4055372240447" y="179.6008977689985" width="2.4253740842838547" height="5.272692898613786" as="geometry"/>
                </mxCell>
                <mxCell id="19" value="" style="shape=stencil(nVvZchw3DPyafWVxePPZcf7DVZYjVRTLJcs5/j5gtjgaNnYa3rxJu2ieOBog9hI/fH/89O3hEvz3t9eX3x/+evr89niJv1xCePr6+PD69CZ/XeLHS/zw5eX14bfXlx9fP1////ZpSI6//nj5c4zw9xW3bW6LAxX8P9dPvAv9vw9+vco/P30F+bTIb85vXL6AfMlUPvhFPswJT+U3kG/+nvGjy3w9sN/kUuPy6/jZlUjlfVvkq/OBy+dFvrnM78vDfXkX+YH6VSG2MK/wFBBWQJprPAWsV7YV5/mdIaC6buwBAN21u5Y01LRyAKhpdMlYEgDy1MSfBVTzlADQzE2DKXhXDd0DQHDZUG4AJBe49SCgmLoEgOrqfTN0l+666SQmfteSUrhzSSm5eNexpuw6d8IIqJYXQ0C/U/myd/kue8hhesKfBURX2JL89BE7IM9YdwZoq2vNxRW2JDGXNbbl5jbmjP1c8Q7oc4gzQFyXVDYX+QxwSiXS+Nxn9NvlkyvEB4garFsuxW3EfJoav9L43zD6lO42sn7R43X86un6i2urUtQwA/aJfIDwHOeMN+Wzq7Ce5Cq5sKzGLzT+p+lKdvlKPar42/W+qtwIGT+q9YuGkvOPLqzBv4kVEY0OaDJto6E8TE+4y4s+M3ftel3lE/fWk53t8nIjdPwI45dpoifyQDdbdZH5lLm7Xb65xFw7EpfWXSTnL06xL/LdG/sFf9I3ai+KDIp85/KrPfbA8wP0P13skXEWPM+euIuep3GQpyTKVVh/pg46TJZ4kG9E/2V3q372Mi3uxN6bkmf5TXG1ojzzV92FjPKdBdWADmIAmMJllzcFYDfcJvc5ABqZYdyB2kMjM4SijGA/ttsAoZRdAZjXDdNIDoBCzFhoMeqpAJif7ujohmKQixbS2tSxshmSnJLaNKNPQimDPiUCyDcvjgHyTE+OusSicZu5wA6onB6o8oYAAjkloWNFzcAKLsKv0ONVGnFKw4pI5yFHGFPyCGA+VShTTgjIjKSlqcwHQCFeT0gQurFK3ZKwlE0BOtm00I64EqnOubvwjqoALOMXYrB1BFSiSyPSewQwbiShO8GSOi2WSWwF9tI7VT4Jfl7NwOiIRLMcFIDcwzD5rADE840VJ7UHEoHGeGpJLITK15Cl2TMAqR0AEh/k69YRwIpy8nVXF0dpj1eJoCAY8b85BfP3YxNKNwpTpn7jqln2O1asZmDF3XEoatON7yFEtSS+B+STAmC6ISasdINFdgFo3chMmW4BWEXr3asctY/ZaFckXQD8HtD17bzxDBC1BXFtxRBkAup255Ka0tbIdalrAK3V3LJR6iz7jGlH3TAAyvexuva7gR31m3umoi7CsKA7AQVTrMPBnQUh7fFZziE5pDZSlkJIIMU0yDgmj3WMcXOMbrQbnikx9lCwEjCskDgaITQFALsnOaNMuKRGc/XalX5zyiS0D420USMVYpkLAhhfF+qKlKlS1RByjJ6p0lMqTfm+SjP8UlTJpNKgNVIIBagsI9hUZlapF8h7zelI8IkuSaKl8yZaJg3TNR6TFHJKSdO+Oj85TUczAlglMAXl+iotNUbtySp9rBpJu9o0e/MYZQF10+wJI3RFvyvNakZpQ+VNzOLCLQNiXGCUZ9QMrEI5CkDqWCnXDVhj7fx1q089OMqTiy43FkR19YZuM6cUZlp4rIOwmtqN6hLLT/wswxxqjiz79vNF51ADZXmopjG8xupVpOI1XK90lNeIvaqY8Bq0V+6R17jlfMDI/HxlOZNf9afxbM+rN4NG+bniFo3rp8cKayu0CuCxRtyM1oX5YrfLJ+PNBlxKC7R2s2HBV5gJi7ABSz3N03ipirGVZ8IRo2VtVJ8jesTKnXTCN4Caac09YUI46m/0DRLHj7TCmPENSVgV4+MF6ylCqljbiJzGel+lTw9wIl/W9ZRKM+aG9lX20vWJPI6fKBtStcgSZn5xIg/6Px75WWo6o8OUz0bygfow2hRofIQsc/RBMPv1WBQZnRYsYns8IbuXAwFGt4gGGP0oCmB1vGiA0VOjAUbXjgYYfUEaYHQeaYDR26QAVveUBhj9WRpgdIBpgNFjpgFGF5sGGH1yCmB14mmA0eunAUZIVpzF6lfUAKMjUgGsnksNMLo6PfIKq29UA4zOVI/Nu1bvq6KOVnetcpVG+67HLNZoD/ZYTODtxx1DOe9u7shcePO0qj7y3mw1Om/97li0453laqtG47rKaozGeHXynhaktSZ4S9Ugi/C8EcdjidJbuh9xPYamZTwfwxihAcGUh0c1cz3wHGXut6M8PU/VeWTcl8qCDH34Hz/E4PLyx/uvPr48PT9ffzRy/B5/JSIfXX9hEj/+Cw==);lineShape=1;" vertex="1" parent="1">
                    <mxGeometry x="382.8487307536718" y="202.51889823508674" width="53.42780873301446" height="100.9196197695932" as="geometry"/>
                </mxCell>
                <mxCell id="20" value="" style="shape=stencil(nVrZUlsxDP2avGos737u8h+daVoypcAA3f6+cjO+xBIc5/YtJOfgRbvkQ3j3dPPp4Xjw7un58f7b8dfp8/PNIbw/eH+6uzk+np7l0yF8OIR3X+4fj18f73/cfT7//fCpI/un7/c/+3/4feaFSM11lnd/zt848unfFx/P+NvT3YwPbcIzcQT4QK1MeE8hQ3zOEz5QKBAf44SPVDzE+zrhM4UK8Tzvp1JgiHfzedlRCpjAM8FTQxLw+kY5UWyYMF8RVywzIcxbEqWoC8KsRCK15CChzlIQMTC6ViEoNaqU8ZYUITC5BUEpnmge0iRLSFjSllAoId2zhLZcIc3GwBT3EcQ+sC5pQiLet0KmhhyAJVQqu1ZIbql8iiA+aR8hrgxIE9Iw2msJheq+QzfKu1bIohr7CJvrvJaQhi+8lpCp7FK+XCkuvIYitJ1yKHJLu1SjeCo4firvXSI5ZA+F2hxwSyIPCHHb8UbI0JHFokNWKTBGpzBC7EaocIXsdEApjRhIWuSa5zNURw6sIEesXhMKkHQVZZ4PXbE9VDniHEWrJw9Uo/mxgQtCA16jpXHEjRCgTbesU4caoT0IwStCgnKQLVV16G3NtwjBa0IF9tCiWaFQwSs4pRoVuvu+JXXoNmT/5qFnm25urPnWtaamCRm4ylaGqm0EhhGoiZ9LmlDRCo2cIniYJApB5dEtwMAuhOI0oQCvIQSVJLaFtjbtBEQyKEkUgsrVX/T3rWsts2p0UaJrrePnjVBWgmuGgJwAO6f1u98Duteq/UwXDdZvHzShItfXRgJ2QUCHqCYqdgLQPglpYV7h4h5ejxByjXZPQHQ93YmGAEJKElUwBKRNPSwaAspchRDMGTLaklyTudeECNaEGiwIJGXLZksoF5B0p7IhgBUkLoe6iyBFUt6zJfFD2h3jQ4tJViM4dK1dEcyWkOD6BozgkGqIH8qGAF0Zv6J8SL0l8ntro8CAJClUh17ZaHGv6DdyA1Jh2GtCjkaqpGYEgVxZ2kLOlc5SbJSNMiF3vJ8QRxp5ZYgQQmZNQEGoH1qZHA5zQnBKcDiQyqF1XMShOm1thiuTASHoM+B0o3vjpAkooXmp6a9MmYSgTQ4nZeK+dbqB0z4JQdp948RS7EEVKYvUtbcZVJGCk+NUiWc5LNLvVE36jRN82VJRK+ASQgi6RYuLlB7ZZ/VelEFpa05eFlo4UGd1rVLKYV1Ks7b2YhFJmk3tJ+UoMFGp8lXclYIXBbkYTMG76AKLmJomONQxcrpIKQ2ewYfRKrlsPAAnwHn8fNnaAHJgp/Of3jwBWyq6ou7dGWA/4mRs+wfg/WhaX9lfsnjcwDL4RYfM4nELzuJxj8/icRPR4nGX0uJx28fgF31Wi8eNXIvHnWKLx61oi8e9bovHzXSDX3TrLR6PAywezxssHg80LB5PTAx+MZKxeDzzsXg8VPI6U1tMrSwej8W87kku5m5eh6XFYM/rbsdicsi6n7IYTbIuEBazT9ZthcVwlfUgczG9Zd2nXoyHTVmHx888ytDNvcHptuj6fDt4eM4jOm/KA2fzTt8lHv1vjma7Gigp0yfDDxfkv7OCo5TP6KWDbse8isCZT9GtJQeNkHlMfC7wSAtMnwhXAdx09onxIvds9o+MvOg0DJ83vCIsmEia9wdYWvYRC1aG/3gks8DLh5cXOV9Ot7fnBz2Xv+sXPPLV+fVP+PAX);lineShape=1;" vertex="1" parent="1">
                    <mxGeometry x="431.98774600070726" y="199.42921060862523" width="1.5098311276075715" height="104.04446441097271" as="geometry"/>
                </mxCell>
                <mxCell id="21" value="" style="shape=stencil(lVfLbhsxDPyavRISqec5Tf8jQJzaqGsHjtsmf19uF+tK1HqK3OwVRxI5HJKa5OFt//S6m9i9XS/n77vfh+frfpIvE/PhtN9dDlf9NcnjJA8v58vu2+X88/S8/H99mi3nXz/Ov+Yd3hccZwp+RrH7WL54SvHvh6+L/fFwau2FYm+fqCZg70lKv79+cfcBvhKHHpAoBADIxP2N9I6BASAScwcQT1EAQIhTBwiOuAKAutifECr5fB9QSWpnHwu5ct9eV/v9U6ICPKjkcmefA1XkMVOOHaAwJmE4oWSqKI90uWetesogkaTYRK1h/bIJiI5iH6SayAHWUqTU01wzRcRaIO6jVCN54IMuxwHgEEBpLcMJQD21kPcWwOiEuu7XAJAYFJAHHwoSg3PknCWCQXbrEcVbQMIAo2hlzoHs0zBxtgBBXmeb33NugOzToOQwABARms1iAQHEtcqGD6gqVbalWMNaUVg9lTTwgJy+SbhlGgF4LXNtMmGATY1IAWlUqAzpyqA7zAIbTkC1uN7aUwtAV8qU2QI8Iq5QGTQasEbjEFZUXBVQTS4l8khAChiKa8SAMKQGakHqdBo0zeiEm1xaAWEePgdIYiXa1LZNREgDcwUyJzLUmUQCBKHzlW2LApnT2SSaTl1gbgQqxp5Xp7YPsJLOKgfg8tAddJbJaHwj6eUW85qL2yG1vUFnMcRZtA1Rhz0P7p+sdHSaFECAirm//3xDwLB3tlzoQOzRLMZ2jtEtYIcO1gUtaYjhYlPIwwqp9rXXjboEdKbDpJncHOyEuize2KOZR69r5nkHhyrmcX+HNClr+Bp7tH9Yy05jD+KjKRqi9Rfd5zZuNfEEGc1p5Cuh+Oc14Zt8QP5m+4a8vZfu2X/ujfpfe/3x70H8cjgel/d0u24f0PppeXzL4x8=);lineShape=1;" vertex="1" parent="1">
                    <mxGeometry x="392.7357983274963" y="312.8505255715899" width="2.801728755614022" height="9.236555656384704" as="geometry"/>
                </mxCell>
                <mxCell id="22" value="" style="shape=stencil(fZbZUsMwDEW/Jq93bEvenln+ozMUmqG0TCnb36OQcYlcojcn9rFk6Ur2QDdvu83rdgju7Xw6Pm8/x4fzbqDbIYTxsNuexrOMBrob6ObxeNo+nY7vh4f5+3UzrZxGL8ePaYevmUsMyhMV3Pf8pxQk9/vnfgb242EJOFRSQCVQXQdiRNQWaob36wAXlKiBCjZcYg+uCvDOwRkEMULSJsRoWgdCRnUaSHDFAAhO+1Q9qgU4UNCJSKh5HfC1d6n4Fun/Lfh2xAbkBLIOHVH1GbJsYZyBLtMNSLaYSKKuLaRk5oETwjXAhvqoD6u4FKMBVAS6OrQh10RNnIuwBiMPKYJ9nzi2AaddKnaUUgBpCyK+YtVoRuyKWuQdDMAjdPUgqTQApibmRVFXwyVKTTnLLkCGWivKdZ+x6oHBWq3Syaw8SIl29SC9MhvylhLNXXOl1m5XLejWlwucIe//AUPe3rf9LoAzo8RwWkpyAWSjBzgE7VB0YMOhS6Nu60mCZmib+s4teSdDFrW/TKakGP7LNGlVSMiS5ZAH6RNEU6fMqDqidvXHi+zbevtuy9xH1JvXbckoej0jG/4v7ta/6xZJpVgGfw+Ox3G/n98ry/n+gSK/5scN3f0A);lineShape=1;" vertex="1" parent="1">
                    <mxGeometry x="393.81686217282925" y="307.86469048203503" width="0.6887024113050049" height="0.9440730525149976" as="geometry"/>
                </mxCell>
                <mxCell id="23" value="" style="shape=stencil(7VnJktQwDP2avqosy/JyZvkPqhiYLoYZahi2v0emcSZWktdFFQcO3LoTvdhanyyf5MXn2zefbk4xfH56fPhw8+389un2JC9PMZ7vb28ez0/26ySvTvLi3cPjzfvHhy/3by//P73pkv3Xx4ev/QvfL7iYSFpHxfDj9xPi8OvB64v83fl+LR8oySTP9qQeA7hsAI00AoBS4XlHmUIGAKE8AySRAh2YKacJkISUjwGNSpzkVYjLsXylMNs0R6rtWD6T1km+RIrApkopTPI1jB3uypuP8yxfKQJ9hdqsb0sUFH0/OflMDcgrtdn+rRInKM9eXkFEWASpl29QPs32aY0E2FOHNVbyGdpfN9+vQF+zNnv5BuJNKM325BAooCymWjYLCJIX8fIFbIh3vo8SjMfblTyDhGGKzqCVKvw+bwIiAfskYqevEoOELMP9i3yghopi9BFXbUlU4yrJ7OKiFJHHks+ZnCiDnBQeNXNV5AoIUilUZ6Wtikagg70uc1QIXiE1H3ZWKQW4TRPFeUvd8whQR11eMsdqN3CcGTE4NiuDffYB1ZOT0R9SuvBI9UUHGeVsH5B88hhfBZCcJftyJFYAQbaVOoJ/8XQcCbIPMMc5gBkamNX4i+fwVqUMtmQAV/KMYhmU4MobTi6jSO0D4uhSVqSMrFSTT6Ci0HFGkjx7uhRIs51VXZ+QqYKMa2XQzBoAlLaymHWzJeC4Z6JcARLakkV/8wBYKp+pbEHU0S8dLeHai4LZpLM3e0DBSoR5BYtHVI3NrrLp2BQByoYgAmW0pex16CsgK6mPDQMIaoIXwllZCSW1NY0++paCfgRwfbZ5GvW1fYXiAXxFh030KUoI9a2wARjnaHHRalkLKMg87apxz1G0QvUntr4CDm9mrwNqb3s+ZA+oSIc22uuVHwSZtY0drwBXdHAtvcXSlSIQZ4CFd0ArVO+HzjHYD38GqOJp9EqZ6UUleD8gguhWd9EqkBX791yXWDEgj4PpincjamfUd1jG7OgsZgDXYSV8GDMV87yCdSdXOqw66yAZrpCbnxdIwIAy+GZpyXR8Yh+g/oBiRy5FEwP2sRSNH0DGaRnNy2qFAoqxxtFaLIACV0hlRP9qDIMOlYlH6V0cl8asaP/EoYOgllhKozzvH4KqbzaywkFMP+i6UpnhpIHttWNRhaMA5hGby1ERR+tfmZXAWcz/Wcm/NytBEfSPzUrCGCUu8ril2rTzTWCDFHxZqQXan8c4ek3LIIDiptlhOLxM3j7GgFcSbPavVVbE+kuVXY1V0Pi7+dmTCGyl+vTbDRgUB5z48THXMfo5KoriQhpO/8zFji4Ztmo9JGaVAyyh/bU6eRgRG3INcFweNxYN0GMWcq6vu1KBFqZeyaMKJKMle5ZHZ5a46aDC8PjRbDFkJ4+6m37/4P2FSnS/T5jtyWP6eSjv4wcdG//4zuuqvP14vmB7d767u9zPrd/7Czl7dLnMk1c/AQ==);lineShape=1;" vertex="1" parent="1">
                    <mxGeometry x="397.0205156084299" y="313.917667216523" width="5.681070810808403" height="7.883185449286935" as="geometry"/>
                </mxCell>
                <mxCell id="24" value="" style="shape=stencil(7VpJchw3EHwNrwgAhfUsy/9QhCiLYVlUUJKX3zthBpqNxHQydPNBt+Gwchq1ZS3oO3vz9eO7L/d30X/99vT4+/1fD++/fbyzX+5ifPj88f7p4Rs+3dnbO3vz4fHp/renx++f3z///eXdkByf/nj8c/zC38+4VFzqAxX9P8/fWHet/vfNr8+ATw+fz4DgWmaAz9cAq66UFdBcUYDkWmRA8wIQnPntSO0aEOs8wFnpIgDGSsMMMQqAd2HVIZkL4kgBfiBAdq0LQHR9dVzqLgjHddfrIp/xC0KF6tJq1FydD9fymZ1Q4BZxHnOV5LPrygcut0W+epdNyZMHanJdhF3kRKjNdRV1Lq/nb8cJbyfOtPYhn+Xvl01ep013ZfVv99K/AQG5KtCji8Jhoc4IPgG6SrPgSmBAFk+Aznn1QQ/Ti1eZ3zwbyUTWgIyMrJpcUl6LnDa1u5gEoE1iOABxmuF23pjzKz+W5Kp4AvIwUyZnCUAiUmiA9U2EEjLRE6Ei94XjSnV1VTq2SQe3AX3G/gHwklAr+HZlYMSvKQDyfw2+Ojn8Sj6t0W2TYK/k+UCuCzqCAqmSvArtIb/mgpclCvKZ5Yv+/ZpJPgmPQZ4S4RWHxZkmL/Je2zNv8iJtIN/4/F6dH3S3yat4MJeM5IOyv7nSSF7Gp013vshnLd/Zv1WdJzm/2jM4r/1F8XM45CoeCvUfklNQrfd8FOcvB5Ef54+yPyhlxvsB0EwNmiWLov5UEXIFJZ862Sz7zBKdrYCUNI8i6VcjoTqYYJXimXiLLrEARKpnYfYBl4A1D9AXZeUH8M4aeCixXSud1yd0nZrwQ6BWx2SvjHpG3NvRbqvQaOyHflS4q+yhbOtt8s1tQHGxMUDlZwP9Gx8pC8ehvWSzFjlGwerUYfc8a8RtQNsAumYC0MsGUDNL53atH7R2BSjGgChyunemYQCSCG8AemOAtFJnmoFZvX5C2/ygqHUoXRhQlKf7/L2zpwWRDcdtOqgtAQBExgOglG7MS68FX71xpKwBdQNEFa2VJ9SedHjX2YafAEWZtU7aOgefchxIZXuCHPrbDOZzAgmaAYBpxmTZRSzFzUqqcQOAeSlJqgSAHZfkZmFkXN78IJ4QvOeBZ7j6FRYgJRBMGsCxkeX6AgD2HBJCA2jhMVJO2/UHAWHbGFQ5PI8NBz2hye6k4Qlk1i7nSJRR6rC63uTtbevJ+VezraXtTLo9aVvzoFyNBijsNCCIJvfZvZw6JlM7hjZni9PySdUgAPy2DVNdHwDkuarnjdy4mUbnqgovlKaBO5vkPjSi1CYmk0VrLCxXs76soq/6+7oqjQnC1ECQuJ8JerWNocYTIM659CpaaddTZ8m4WsRQe2864X6uMX6uMf7Pa4zE9g+y9A/5Vd+k4zlxu9PkCqAe8/tpb6l68xGgq4NHBqitBDqLNaJxJLkOrswpVvXOwHi+SEVepYCqqdzkMgfq2wB0W6vXMLKr7VPahioYWumQtrjAQJ2Eo61x94+S2QTzWuSWsB2D3E0AmNm2C5gquAWh3Lbu34SVQpm5dZ5VhQ4oLmEb0NVmpW2bmDjz47ajZ7KcbCRvhDabFrn0CNwYtSgXDH6W6yOMutwvbHMC+EDVb79dKnp9Dcy7s7G6EvRo26Wrn2F7YX+65EBiqvM0rjYZ9CQSOQRucFKVg1TYrkWTvpAbDRN1dUF2poghWqdYl3eE8bjnPvGjmosszKXuAShSaUvctACg3IYD0HXZAIhETpH9MG7whNKD0dumtOBH+JUWNi+HvALQ3A+KVbmWtnWKNdmrpW2dAoBqlkdsVgaohU3alk4AqFu/ASCl9VsaQ4ftXRbV0AJAl+wAqAYDAKsMUJu2VHkWHG/LKEDhhc0A6OD7wZeQXgfgw8s7Tx8ePn16fmXq/H9+RwpfPb9fZW//BQ==);lineShape=1;" vertex="1" parent="1">
                    <mxGeometry x="406.15926338724705" y="309.122172047074" width="10.54296934765413" height="12.668040834284259" as="geometry"/>
                </mxCell>
                <mxCell id="25" value="" style="shape=stencil(lVnZchs3EPwavk4BGFzz7Dj/4SrLESuK5JKV6+/TGwbrxYDbit/IJXoxmO65wIt++Pb46evDJYVvb68vvz78ef389njRny4pXZ8fH16vb/h00Y8X/fDl5fXhl9eX358/375//bSt3D799vLH9oa/brikkuKGSuHv25OYpem/T36+AZ6uz0dAl6IzoEqq5wBVKckDWjwH5CS5LYBGAE2qLSblc0BJ0vIMKBI7AbRhwA5QaekcUKOYA+AJ2aHCAHeGIIF4qfbh9QFo0plFNvYf6wvlGev7vD6JGT1xK9P6KoGQVork2f4umTgo47zFe5SqIiycFemFCjXOFqUghZgED/ZZRniSiUnRRGeABolEqFCZzdGpeWj9LmAhWU0SY01sdmpW6qMi6tZ3UaLSIiHMoktSieqKFLeeh36TMCejGsRIMloIQNwpsSfCXAcwaWQDZB6d47hlSeQE0Fh1cdzFWAJG3M47dJVKIl/jcPkOQCwFAuhS58ixRM+Qq6fNEAiM5ix91rU1UeLWmnw2AoAR3YJPRwAkEszNfMa2OsR1X0plvG93axtuOAP04AGsTMGAbB7Acup2RAeoNGlbl7iYFIiWAOjFAyJJGGZLmgfThAcA1h0qS6oh+CQDfQdGxFLaAFBGhEmJHsDSmO0hfAB0xlz35b8bJ2L34hHAMl8dtexgEtVGGRYfz8ADQpdDF3boMjqcY2JiZ8i+XEEbLFdih7iKicdoXQJCGQ97p3kMCFIRQZw/dONqbcPr/xcAbS47RB4PqXkA6xoAaItbKdNLXwJA5zt4piENxrT5MrqJj8f0jwF6vFOzjPUmqLuuZtloDk6HhhlwyG1ng0wufgtGNdo7l/Ah4M6mN0yDDqC0tKMlUxdBMIkB4pI2smTWFKMuz25C7WbZOC6jCXoyI0ENXueYRjehpMhlPxKjq2RNYhpN/74+0rwXhjAPXXEnNXQpiNBJoe/XORTQ1bPik3wKg6yUyXR0LftU0nkWHhl0X6+DwfsEZ+8gvCIQCeHE//G/AzJlAMNpcNOn0d5Ny3KJkamPcvLjKlIgW2/+DqPSph6ScfOzSiIco+NWdzE0WpSz+4g8RyVPXQjB4NezQoupyIku0SsbrC9O1LTHa21c6Hz3J+t22tLtGJ39UQ3cKL/dCBEH1eazVuQnAGPrzVxmw3wdeXYHdKoJaM51R4gCdkMCUdf5DGCZqUgXk94DxFGNDiaxggYZuJYw8nkbPzdHHEocG0i6T7+Rt4T4+c6FJzn09r7sAawox+WeZCuirMa2xUtlUHl6BvMA1kNuXnJnyLSd2nhY4oHdwW7aNA9gHd5WZ5e7cBZASIluuH0PkPzUtpnEAD98Pf8+AB++/xvw5fr0dPsz4fi7//cAj27/POjHfwA=);lineShape=1;" vertex="1" parent="1">
                    <mxGeometry x="416.10476271620996" y="313.96596624344204" width="4.557829209387011" height="11.115623844727502" as="geometry"/>
                </mxCell>
                <mxCell id="26" value="" style="shape=stencil(7VrLchw3DPyavbJIguDj7Dj/4SrLkSqK5JKV198HzIazw+ZMS77l4NtaBvgAGkADnIt8+Hb/6evdJfpvry/Pv979+fD59f4iP11ifHi6v3t5eLVfF/l4kQ9fnl/ufnl5/v3p8/XfXz91yf7rt+c/+gp/XfW8K9qVov/7+oficv73Dz9fxR8fnnbiyaU2iatL5Vy8Oh8n8eRCOhcP3mmZ5MXlSOTFaQX5xOSzywHXVyLfUD657M/lYxzbD/lMz2PLtTTJV9fIecw5Pk/yITolBrX1/jvvplBcZDdo6GC7UwlUocw72J6V3WHZQdQJU7D1ZiOlyO9gqAOvNQo781KbYafqWiMKipfO0YVKHZ3mHbL5gV3agClzXHpX2Q7BtRl6xazELp1cnGMnm5WEWgmOlNV5dqQ2kLOZtVEriUXvfCQNrpL4EUtWs0ISGg+GHD9jSZIrZIeUMeLMDIE4zqBW50tbxDEsqbgwQ8OyYCXwVjvA7Gl1keRgrU4hB1CjmpPKHKB+ROyhfPbOe5CPpISYfEwgH8h9TV4DyHuSkUx+Ob9n6wfnC8oTe5q8RLwvsafJq6A9SZyZfEF7Fn5+RBy3Txj5+SbP8m/e4HKTzySK+/kF5FkAdPvMQRwpni3VQnq3+kFi3tYPM94arWgd/xCQOiLuLMA8XCC4yEI+jwtuCsUVYlJNTmeXWdqKBEOWVCAm0xtJZQFRKi4xK3nX5h3skCxsTEGg3njuBz+MuKuZgZnVDyNuJVD4HcLgupuCkRNmpYhEoW4M7tRxoNBGFT2DRp4VmnBPNxdnxzWlZu1MBcKh0LpvVR7ynSkIC+iKZm1Gg0lFMKaSZni3RHcoGYlCC3SHajVkxlItNImZX9N8hyqU7Nh6AI1SKJdvFkDA8OLoxY4VZGBzFw+skBsQIKbN95VAw/wKTFs5wzOFBoTNGiTiuFYRraYgJGuYgkZUCMTTplALKtA7tFG99zuQeDAFTcsdmB8WQtWtxPzQBnJ2CqyEBr9wMPMcS319i8XVld+6zAHReShzdUPaqVvUnimEigqsO++ujosCRx/2F3nkhTOF9UjC0FcWz1kDwcxahtV3fsikorSyXFop/exHWvBNs0Bd+otEhzzdrEtQ0yNVHDr1GOVYCgvZYD2DKaQlRlk33NZeNY224zSAFoVKoHEco4zo9i2WsQTF93crFGxNsoyMflZSApSUxvEdkdwXno6NH8GROidjpd3yFpT2NPLtscLS/9RG07EVcl04mRLHGe0UoFg8MeW2cLLGe1YdQ4jb0ODNLlcCbsHaei1j3rSjfWz42bkCXCJRM2nENGCcSEne0KVTN+ezHVIbw50dmFjuSxUpUxHK101BFlLG+ElXgK7Gj0J5poCJRiiY+gRqjqCUxxKnZgUFT2dc5jiducBtcnfWBsHIp49cGfi2+eumwK2kS4wGTiytaa+z49qY9J1NlcJspMgb6h9TtB9TtP/zFM3j0Io/nenCO/NIAmchDw1GCJRa9GEMOKDxTLoUqFgoOU+CCpIppqVhUkmJPsKI4iDDcjVDtQQcWZlf2PtrXNJWzmNceayQcZBRAgVGFOyHjbHRHZbIL3H04GcKMM0snr88Rey4M+/b7A4QPDlQitcfYsFxSuEdFeGdKq0H5gegIimMAdCxQsHxp/B2IRZsw/prMrNSwUav+54p5PHuuoVopUXWzAoMLyRK5u0Afska1A8eiUKjZSEs8VNG+3Asn5GuFVoWgmAfmQcUT7pCnALmMYM7bl6WEbfzjKnhaSpNR3F04beuYoyjj0+PM6H+dEnWD/h5RJen60ONemN9f3AeVmQ9vsqbfCLW9+PNfifPPixYamyjzzwLBWzjyeR94nW0/+87TKW908Ivt9Ht+0xZxvvQmae+57OjN8Xtx+0Lpy8Pj4/XD6T2/49fRNmfrl9Tycd/AA==);lineShape=1;" vertex="1" parent="1">
                    <mxGeometry x="422.8728437062945" y="312.5323539620959" width="11.322089128692824" height="9.50176106646303" as="geometry"/>
                </mxCell>
                <mxCell id="27" value="" style="shape=stencil(lVlJUhwxEHzNXBWSSqXljO1/EGFsJozBgfH2e5c8VtNKzSRwG5qslmrLWvogV99vr7/dHKL//vT48OXm1/Hj0+1B3h1iPN7f3jwen+zXQd4f5OrTw+PN58eHH/cfT39/u+7I/uvrw8/+ht8nueh87ULR/xkPcv734MMJfne838FDcBXxJV3Gx+akAF4JPhUX5vcHl+NlvFaX/YT3rrbL+BKcb4CPRN+6meMZ7/1lfDP74H0iuX8rrgjoG4l9gt/OHwLiWqAHtBlfXKwEH9FhwbtGNKjJtdlCwZ4wFxTUIDQXiUCuTsMcQ+K0EAHvZD7BlGZRrYJRIRYnPExldptwNyRBK4m6RvzQEwH8XOiVNGAkmUBVmjpeZ4HqqhCzqvNxEkjeBXKlEl2YT0h2SWKlUlEHs5sSK1nw/c+WTUBdJrFUjS/m8E7VBZY/psMsoBuFnBdITmcdNFGlmzqdrWSeYRlnAsBJWZywnFb0g6WUZwIWrbNZzZWNhIbRXptp27KckUC1lJ+vZEzL8qEqJlAtg/ovMTdUErtkZsFnN549ba5kOV0E88HIlvJSRi5uLzCfx+Db8f/5pI7oOTtCyRGWLzJTX6suElcbqxQ4IY/wOi9gN549Z+GVyAm9BQG7emomKzh1FqiZdhkRi3RpNB+iS7ONOlGRemI1NCFeiAJLzTU883IcYbbLtkz1bRHxQvCCMWF4RvRy5v2ehERyKS94FqSY+4aPrLQ5WfDKukgMOMNX1i8MQt/5i3Vt6/sr72rPxEMjxJIW9m30Pmb/BZ9IvK3lwPA0HlJAvNB8Wd8fiL5xNAU7+1SKlwWvhNnP5W9gjLXwg5EkiU+bmRY8Y0QZM8Q+H0m+CFJ0zy8aP3Gp3hyP/Mnvo9ildX1p/L8NH7IrUADSaKrOOyAhQ1hjGElE2DwAc2bjg5r10g3qqtDuOuUxiG4COsLk0tAS50bT2g9PTtDmsqKAsH5Fsc5YqS9EoPih4k4H5rhiTBfRSqyZ6MQGV+IDdl1yzXqDRHSwRrPOJ9grPFsR1IVdzKys4fdj4th114m142Fk49a/b1P9JQEoIDYhMMLuwTxfSXlFMB10dpwqbZbNShWmnMj3CnlQ7ibgqVnNTWlO0VRpF1IKWslykAoEnJhT4gmUFgE+5WhBpreJmZnVbKLLiM0SyPp9GIv6EE/CW5prsCbInMgCdhd9N8KvBOXW2JaFhk3gMBbFys1akVt7S0bMapMaxFIMo8afD42EFSiYK/l4Co4LkZrVJmYgY8soxjJplOQtf+gOrE9x4Dbak/RpetkcEy93IkZ84skmCni2ae5LE8H7s41cwSEkUYfFNq77bE9WeNZNub4wk3qEsxEhYDQoXZQF3CYqNb4fS7SdrhQOrko0HY1wgOTGUu4CHPbFaTQNr4Nvq9fXXUao3RdVZeyaX2dIoS3a4ibOCQHnIEsRujZ407eeF+H24/mz0qfj3d3pq9T+//gZyh6dPmHJ+78=);lineShape=1;" vertex="1" parent="1">
                    <mxGeometry x="405.18823169865834" y="284.4273631383162" width="6.67112103286551" height="9.400767365512921" as="geometry"/>
                </mxCell>
                <mxCell id="28" value="[1,3,2,4]" style="text;html=1;align=center;verticalAlign=middle;resizable=0;points=[];autosize=1;strokeColor=none;fillColor=none;" vertex="1" parent="1">
                    <mxGeometry x="450" y="194.09" width="70" height="30" as="geometry"/>
                </mxCell>
                <mxCell id="29" value="" style="shape=stencil(7VnJUhwxDP2auark3ToT8h9UMYSpEIYCsv195Axu2nLPC5xy4TY0em3tenLvwsXT7dXDfuf56fnx+HX/83D9fLsLn3beH+5v94+HZ/21C5e7cHFzfNx/eTx+v78+/f1w1STbr2/HH+0Nv044EZLUUJ5/n54wlfz3weeT/N3hfi1fqI7ynqoA+UBSBvlEKQF5R2F8f6FUz8vXQiKDvGMKDACqUB4BgUo4DyhC2QAKZXBCSZRHlbyDPiqevAFkSu48IAs5PwCCgyrlTHE8IWSqCBCJ6wCInlwEAEdljHMsFEGgk1iVkoc2JNXYjYDSHb0NCJRGL2U9AeRSFEpxBJT+ZBuQyI9GayhfIrMN4O6TBZApAy+FaMuzOmKQGl5TYwxcTeRAevsl+xdAJQE2uEp19JJ4CggQKY8nSMIAR26MtHadgmqa0phKsnhhu+DIJyuPmlKeLBaoT954fwUGJ5uorSujNOppvJYH9mqIR3nHTAwMWHr6Gw/wxJODBCSdIz8ZUEGh8YbBBVQBk5/0SQXJs7PyEb7/xXsreQ/195M8A3+yrUnJVMD7AzkTrwi7ROreW+QZ+lOsfNUUxyVfTRfStoUAyUasMswIBYizANTc3TQ+FIBywk1MpwFwY5QwAZANsgHIqLlzz4IVAOVFKzSxAEEnOEpjpmrgHOoUyteKBSD+pTbIdEJEvYXJTSMwoziIrQYFoOzWwBk61QAocIU4TwBgtCafmWjNBqSSTsipgCLg5VpxEi3Ao3qIdqi1EgV0SlUylLAuoTwHyFMBIabtJpba6gGdUKZs1YpDJ9S+TLwVID1MawDO1lklxFK1gNzc+QAZUUCcKo5xE4hTAaFp9W5AC5xxa4bz03kqhiFxnxjbALbUXCecByfU3ttXExQ1vg9K+P8p4fT+D0o4+NPYW2EzTRs7FNK/2kanSxrqKlrC1XBUVREFWHc4M2VrXwzPbabOTNmIO2O1OdoGDt6uw5gUuo5HoFIQ26yLg1kdg53jufQn24BiVcoeksjENnCp9HX43LWIWb6Sh7dNKdne25QEXEQVMM0xephLWYthzKWQcTf1lpuHZSqeuwAz5akdGdmQxQbOY4pXQr/TWF0TBqBSKZ15rC4iERFuDHB0q05F5FYtl2yyFVLCWqzNCbYwndlmf/H9qnRb3luOivcjmdZapoDvms1FE/epuy0fbdoxvONUeXOXzX0P2JZPdsgy3MqVomTrHzSSW0e3/kEdWCeGn/RH/qzztwGH5MXSQI0Xsldsn2B4ZbyiKK8AtB+8++PGP+X1x+uXlJvD3d3pQ8z6//bLiz46fbUJl38A);lineShape=1;" vertex="1" parent="1">
                    <mxGeometry x="487.5247169732867" y="215.90885594125893" width="4.351462549561802" height="23.864991397806534" as="geometry"/>
                </mxCell>
                <mxCell id="30" value="" style="shape=stencil(7VlJUhwxEHzNXCu0lLYztv9BBGAmjIEAvP3e2R6rPSp1J8HNB24z3ZVSKWtXH+LF8+3l4/UhuOeXp4cv1z+OVy+3h/jhEMLx/vb66fiCX4f48RAvbh6erj8/PXy7vzr9f7xcJJdfXx++Lyv8POFSkuwXVHC//j4R3/48+HSSvzven8u7/rrLV6luX16TxDzIe5UYCMBLHjfwrS+xCYhFvA4AHCEVAggSxh3wpJIdQhEXBwCUdAzgLanaJKd9gM/ijRWqeMKS95bWnKT6fUCRMh6hBHFEI5htJLVkUSKv1gilddK2jSAlWflE1o8SspVvZP1gz1td13BH3pdJvhIDSA5W3pH1vTUw9C9Efye5WPlAnNr1oFrla4+jHXnvrLwjDofTGfnSo2hPfvKfRELGSTD8wJ+JPzhJzsoHwif8eYz5DH6IPHLOuH5GjmD21U7fGsGZEuqrtFEj5RZDiLkxBJCFqEtjvfEMMfLEGK3RQpZCknvMPeesAJ4Y1YmOLCHzKTm0aveaFRBFSZ4DiaWOAKR7YocUJ5Vij41tQJE2nYG5avbW0sg2iRx6SeXjDnDHQg6d19erpUuPp+1qEC1LqNOZGA7RnkdAUlECqF50TGAIoEYSak02gIqnJbBWqxKUrMS9W+gVbM3Z2pXcBjTRMYAab44AqBOgkRAFwLhGy932u4CR1obKzncoI61tTQt7gGB2QC4kvtQmOyx7MpaqrSXereVlG1FsNl54YDrl7s1ngMRoQgOWLE2NGSLZ1AeAZyol29c2HqMAlMk3ImNpaiKxhJKQW1gyAKVFbtFYLUA5oE2AyMputX0VAIkHRIgWwPIMANYOqfdauyGXrB2YSmfefGZqSlOzCR88UJpaX+/Mvx2PudosgCV8ACyv4IEBiqQZwHjNfeg6V4mdIW9kAU8K75sBdXKmWnqI7BUtncYGFkF1mm5Ritmhl7Z89L6cOECnUZJ36mUaBdBDsXF4aU/GQ6OtowDfu8izRpT1lRh+nekrS+/StgHB3kr4RnsyzTbPAMDadY0SRztgBKlswG3dEVaA9lK810ybrBHW7mAbMPkSlmBtIkj05h5DaS+APtVMZSCa5SVfbF5KOAPZwa9N4erehU4QbeoSI0187/cS7/cS//O9hLf9fAl0YlAb83mt7NsFx+qDMYw15xh+TfuPQY/VfV+tRygf6Zd7jDEEMKyyK2TEfBh9CE9YNYjYYUwqoLmwIK79dnatBqmn+20rBHtoD0chYYmSamiNtE9IUx5y1K1hJMMRHJ2EZVI7FvIJLKWN9Zk+07Tj+oXytny2ce9osYS8vbXh1395sjCdsyFfxrwe6HXHIj+uH+nlRZr6j9g33JOPJspe49N+suDnfetnoFfl8ePfN6eb493d6ZPV+Xv7jQqPTt+34sff);lineShape=1;" vertex="1" parent="1">
                    <mxGeometry x="487.53244883861055" y="216.68223641453108" width="7.660935060388067" height="5.831773909000878" as="geometry"/>
                </mxCell>
                <mxCell id="31" value="compare 2 and arr[st.top]=4&lt;br&gt;st.top bada he to ye ans hoga&lt;br&gt;and push 2 ka index ie 2 in stack" style="text;html=1;align=center;verticalAlign=middle;resizable=0;points=[];autosize=1;strokeColor=none;fillColor=none;" vertex="1" parent="1">
                    <mxGeometry x="421.99" y="225" width="200" height="60" as="geometry"/>
                </mxCell>
                <mxCell id="32" value="ans vect=[ -1,3 ]" style="text;html=1;align=center;verticalAlign=middle;resizable=0;points=[];autosize=1;strokeColor=none;fillColor=none;" vertex="1" parent="1">
                    <mxGeometry x="445" y="283.92" width="110" height="30" as="geometry"/>
                </mxCell>
                <mxCell id="34" value="" style="shape=stencil(lVjJUiMxDP2aXFVe1F7ODPMfVBGG1DCECmGWvx91pdpgKf2cvoXmyba2p2UX796fH972u+Dez6fjz/2fw+P5eRe/7UI4vD7vT4ez/NrF+128ezqe9j9Ox4/Xx8vfbw8zcv716/h7PuHvRc5RDLNQcP8uH3Jcvny/4F8Or1/wgZzv8MnRFNfxTNyfz0xTWsdnitzhYyRf1/GVUu7wcoLjdbwPlF0n4CtNSCBR6DX2kVwGApVq6gQKJaBBiFRKb1IqE8AXClHhXVnHR9G4f8+0fLiOFxdofAIGYr889xM/AX1ZDBo0HthzcsRuC54pli14Y0+MT56Stg/EM5Ut70+Zst+Az2KfvAUfdHwO8NM2+2SJny365kp+SzwUt6TTjfiwEEKjIKoO4BvhNAqiAhiuMIVe30AJ5GOZyPf2l4AC+V4kvfv3OMogH0vW9nSQQYvEPyu8Q/YRvvQKH8F7qqPKSl9UYWogZmXPCOxZI9VeX+FnYM86UdT+ZVRhks4XhvxfWz35fH8FfCv4VNR7Mog3wRedLxXZv2r71IXgV/H9e6TgoQLgXQuYJlEoYhWqqtphpEPpfSZFr6KgqJSVUeWR+ElJNR6eMnYzqzAKoxt0a+NGN6hCKaXfo8wRJu2ZWkJ14GqnXF0hN14REDbDflBP8m4pbzcqnUbZEzW7R3y+dhtmCxsXo/Oz7j4G56vIFh/j81XqSEfrwQXXsjNRxk9SBCCMzZsYZm4xcaAqChNO8vgGzZFSRLAOioQlOwd23ShgyoI8ySEBW3c8bJSvFLYBw5jKGdu0c2NplmkLzQa29kfGzYhpLuIEpxXbvcgNBQmY9kgEUPGx/ZcozZsaPDFrRB2V7SA9BdTimRZVSgOiVdsDSwJNwNO2yR4JmC5+JGDGhNCC5cY5ZCRgBp2BgJ2kRgJmVBsJmFlwIGCHzZGAmWZnAcCtdlyeBdCGxszjswCIVjvwzwJoAyGxZByX0ArCrCxCqxg37kQGCTTPdCZFEXvPjZFp91DLOu+NeiuJGRjo4I3SLIMGqqLLmNA6DQ/retbVQYLRw9Vd6gMpYTcHvSgTpq2gv22LwzaX1OXGFTzrVhJPqm6pA18vAAZ1OohqWRhnBe97g0pPgM93fRpUhpN5m1ga3i+kvIbvHVawgy1e+A/q63qiKB5uNo2+uSz8eps9c4JNnvFXZmIQoFd33SDnx7tx+fG5WH86vLxc9vJf/68X8fLpssSP9/8B);lineShape=1;" vertex="1" parent="1">
                    <mxGeometry x="614.8048009530721" y="224.94672032698986" width="79.50318202270975" height="2.53273343181015" as="geometry"/>
                </mxCell>
                <mxCell id="35" value="" style="shape=stencil(lVjZctswDPwav2JAgudzmv5HZuLUnrpxxnGvvy9UD20DkrbNmyxzeWCBxYobeXjfPb1tN5Hfz6fj1+3P/fN5t5FPmxj3r7vtaX/Wp408buTh5Xjafjkdv78+X36/PU0jp6dvxx/TDL8uuEKlTKDIvy8vAnH6++LzZfhh/3o3PAixmPGVYl0fH5l6tvMHah0AKoVqAYl6XAdIosQW0KjmdUCKFKMBxEgNATp1e2aNWpJ1QK5UggV0ygBQMkXLgkQKgIaqO04WgKNUO9VmAZUE8NAydbdCp8brgM4+SkmZBqnRm99SKmOK5dxjJrZU50AB7alRsnHNmTICCBWbG7nDQ7RCzR6iCCaiUe8WUKmDFSpTs1tS8hNYoQTqNvtqHem1nK7iS66FscnlgsjEdgUNQwVhlUJiAT1QRiogI/2vAK0gcAYt4ZA9oIMtTTrndOaWXmtS5rJPl2hIKztx8YCEAI3EnbrhFerItTsAKggFNBcmlQEE0PncCgVK2SS+DpBhBWmUcvMAwS3FqasCQoBU1zkAMR1HA7nfEuAhzmRjOjSo0ZgoZh/WhA6dKM+Ii2hLCnCHbqN1rwE801eBXjt0coAOW4qGNc8LCBOXbEv5jxqVuQwAIjT75oCCC8IToWUO3IMCeBZXQQCtUXtqpTqjCqq+pWgyIeZ0S2kGYFyj0Yql5ncGzH0YoH7HUd3aaDLLPYh9420R9tHUxt/XttiGPq+5OKfGVSDT6uKcbJQrlcutXWXDeQFVHmTK2Fum3IZ/X7MnYldQA4SY1r4szjExdBu6QrFFnSrUGaXJdcWUoFbW4rekDl6QAeo+vdW6FlAPGvXgzLHaOpQaaQZIOFsLRRsl4dEnl+uhUXSfEAV6Mp0vWplRue1IXNViuS+/jkWgeLMRMhVQD3VYvJt6Q/vDI/evPFMCB+CRBNeQQq/EPu1kBGxtuCUsQv/Js2DC4PPwULfhguSU2KYbw0+x4APJuC97P8XDCSxnmq8u3JKTVyCGFwzZGyPNa/Tl7Jsrw1b5wduOfw7Xh9vFysv+cLjcy9z/7y9i9NXlEkce/wA=);lineShape=1;" vertex="1" parent="1">
                    <mxGeometry x="686.2932048732495" y="217.41146486547643" width="11.167615008834163" height="15.281228368146802" as="geometry"/>
                </mxCell>
                <mxCell id="36" value="" style="shape=stencil(lVvJch03DPwaXVlcQfLsOP/hKsuxKo7lsp3t7wNGxdGwMa+pd5Of0cMNBBoLH9K7H58/fHt8iP7Hz+/Pvz/+/fTx5+eH9MtDjE9fPz9+f/qpfz2k9w/p3afn74+/fX/+8+vHl39/+zAkx19/PP81vvDPCy64mgco+n9ffvAu9v9/+PVF/MvT10Vc+iIeXMxMvBYQb4GJN7+IR5e5eFzEkwv3ibdCxesinp3U2+LR+bSIF1caE4/rzogTMvfoyjr3Og/iUlw3Yv16d4ksNbkOx6THStaaXVvXGhKVL66CfHEp3ZYXV9atD9UlstzqYlvl+0a+r0qvh832p+F8dMcSOa02FeuQz65GJt9llS+uk/3pzodVvjpPvt9RN3VEz78P+6O/+PvkO9l/lV/3J/mpgW+UD67z+YB8pFfdyidX75q/ni/Rfytf7vy+zBv3RvnqGjE+Vr7t9G2Vz36nbyAfXLhLPrpwz/5ktT93fT9Te2Xly7Qwb5QXl+6aT3X5Hn3OzWXidq18d5nOP6z3t3hXhMnH1V4V5QV0vXm1VyU6ofexwPeTE6qfFb6fXaHfbyuLKYX6i+BdgAkJVTgF5IaATk5AAcDDinp4cgTqoZFvNL4GdXEwQp8s4RZAEgLoGsI0+gen8ZNDXQPinPEBCNTOKQB2SeIkddeAhDdBNqRPHft60pJd5yPIyg2kUN+ngL6qhtTpzq8BGdmNAugIqvwrjZbG15CR1Uvn55CRMFY/mf41oMww4QAEagEUUAAQ6ZVWQF13qSYePBQ8h5qnWbsGiFlDoV5NAbgGHZPdB0HeWGVGRNcA1Zz14GqlYcTg0atq1MZ3qaIhq526ZgXAfVAA4xYKgGCi+Rku3AL01dq34MoGsJ5Di9Q9D8BqBJoGVPwcLKDzbYUL1PJ20bCGQl30BUC4f7BTqtPr3QQ0BFBz3zBsaY3f6YY+rinzYLukgIoAasjaPNcjUPb8PjSkSgroLAOigHVKPbjMzqHN+3UA4lzV2wEsU6GACIvm4fsABASw+OJihDwTGDfXsOpSL3PMmwBBAPVxzaRExAm703aEynNdDVmxAijXaGhbe6NhQOho7rv+wpJMHh17P1IN14CIV1QBLFKNafqbE4Cd9EiLRQQwhxIPHnzeVraGjsZYAYWod4ozGXUCMP+g0X4JCGBMQMN3SICp8jEmkDoaMgUw26oBNoRMO0DGBOSYEtFWDVFjx0V7cnAaQ6aKAHaBNMjLZgQW5hYxyseDJg1gJCOAGTI54tSztrLMZXHZABI5B+XyzVxR5tiVaXtjNVguWIkz2qVGs/DKg5O5omyXlKXiSTfqFOth584AsgalhBGmxDOSSgmBnOwAyVUxAHKnlX9lOyVycO3I0Z4AjFUqO0L15hG7UhH0opysd1P9UQC7our3rQeKZJfUK1+oBgMYdt+PG3INsBSuzlDwFiA1A2DZt4bppY2ZeVWEtwOSsXzsTitA7Br4CGhmOFnvHZM5nWcdejc3rtFy3JiSsUuM3Y9FW9vKAckC+Bos/clshGbISZtm4abyJTMldg4mpBm7xNS7ztLI+RzYCCYAH2MyM1OxMjrG5LvkDcFiabvXJZ7Vm49Q7AXi29oNE6Ap6X5Bf4SdQ7+YUmW2tZtzqLzq0yeHPJ8Di1C8nz7wfNQbK2CoAPUodwMsdzhI2jUgXzhqWgxMk7FNwGkfbrnFch+i2aPo9Chaw5LIOH5yEk3pvHHVjMUpP0Ha12mOVhkQmtdOndDgWBbAFu1NDN5p3ajakLrTrooqFzyxcK5rp8QsvrJpy+JoL8NxTG8kZRoRoOHotFqvMQfmpBo1HBrVWL/IciEaNyFlarRhQiOzZPxi4LEfhqPcpxTLdStV73yE6GcDTlQjW9WoVJdGDG6mlHmUH40BZ3XaVA0ZqPQ+pHzhIpgjHY0Sd/mU5C9IGcvcxXaRAKIZI0FrvAlHR6OWudOsshMjdoa9Ou9rQDC6xI1xMBXtAeAZVIzyOyX4QS4WzVyWAmwMXjgA88w8MhsAE5nRDKrMgOGtOVo7wiYLLGZbN3lmMaHcJpNtAZtc+RWAZuPFGIFNvt8uelNRsNu6qVmIuQ+bqoiY5Pqm7mKUb1fZkRlLngC0diTINXbVKcEgZVf/ktk0eALQCptgsLir4Qlm7nZVQjulTR1SsIC8q3QKxk27Wqrd1k211h5c2B4crMHT9r1xgaAuv+mEKZjEqhvlKxjUjBQpb3cQKOTzgFcBYO4rLxAoAIyxAhgNDaYrePRHsBEy8qWReWaqkTHlOno8mHpnDAeUvlOHkjB8rWEm/24BoEmqet6ykTDeFR74KQAsn/AaXojI+RTgmTE2RY7RkcRHALskshsB8g6jq4q3kmFX1cbMBLR8ozOMt/R1WEPg1MFPVTsAnp+Dx0hRAWxb+8xCT/nCjUbH21AavQ0dOxFKpV3pJhmq8iwv2KYRPeSFEpmG7VGl0NypSZmUTIMfkzwoiab4Ghq8wnmVafoZXbCs6oUZnNFlS78Pj2c2XbxWnncJW3nehWzleZezledd1Faed2lbed4FbuV5l7mV513sVp53yRv5TRe+lefFayvPXxFYef5KwcrzVxBWnr+ysPL8FYeV569EKhY/N69QjPzmlcuVPIvIKzaJbF7pVCxLjldAVB5qVeOVEV0v2OfxionKQzYrHs3U12lIpE4x0BiwoL0NnXJk03M8mlnJfDIy5MGZyXwStm8NbkfsbUS6G/irM1ucp+4xmCCFlpv89P0HO6Elao+bU+iLDI8JgUxLCaYuxbv0L8RZpdkQMf6s1GNChj9aNUvlT2I9Zm/4g1uPqRhPfZxHjudphsFjrO1pbO5naeRVnBFCj/0r3B96LJTwmltAeroTj7iRbDIBKx58qaZiyDcyYMTFjyngXeVKcPeb7o24/vH6fPzT05cvL6/Pz/+Pz831p5en6un9fw==);lineShape=1;" vertex="1" parent="1">
                    <mxGeometry x="715.9584392147424" y="191.84146685012632" width="46.620961515477994" height="131.01187306243625" as="geometry"/>
                </mxCell>
                <mxCell id="37" value="" style="shape=stencil(lVrJcls3EPwaXqewL2fH+Q9XWY5UUSSXrCT232dQDB6JBtgQbxSFJjD7TAMn/+nH45fvDydnfry/vf758O/T1/fHk//t5NzTy+PD29O7fjr5zyf/6dvr28Mfb69/v3w9//39S1vZPv31+k/7hZ9nnE1iYkM58+v8jRF3/uL38/rnp5fr9VFyHdZbKYauT2ZY78Vnsj5JCMP6INGT9VnyuD5KZeuruHF9lpBur1d1FD+sr2IcWe8k5FE/RiJRqMpnxw2sExMIIEqxI8BLqASQ+78PQJBSCKCIgx2SWKakIhEAuifTUpUEgCKZuJF3XesHoEolQvsoZvQ7dVTm2L6KHbWkpoxE6KBKHCNHXbuQI0UrdnQNNeX/il4D1LcBkCQS10hBQhkBWQqRIWuwg9CqBrJDDpJHb/VGPPGlrK4xHslbScQ1ipoJEoaTQo5UnPjRNXzoOe0WoMAOagciQ/HoSz7RmG4AEDpzGbxYkEHtQOKhAUY7BEMjrgEgr1rJxDUWAJWKZO4FIFDXWAC0WNwHSFLvE7pQ914AKi1XMyDydL8AWJr5FgBHs/cCoPFwl6VjpKlyAUi9AHwUkO90vlh7DH4QkMwuphFgaW5dAFxvhT4KUDvcpaUUxd4nQxJ3l7emLJ50SwtAEX+fDNpw8RD10I+ZnjxvAVJBAI0H1fqYKrNWIObeoWfSA6AlhllaiyIcSdXAtBSxE1AA9aU4aSnwiItY2PPxzS0AzAE5cRkCNicKqCymj2pwAHhz0gwHQpdd1oDZJNddQYE2tBhJPB6gldZ2hY0n7Uij87V2hTnf1LdeSv0akNAOCqBqLb0VOQDcl6qRCkeKdByorlflK0BhO4TuOQdAx0AidE3TkTJtTmrBrFGOwXENqBLGeFC9BWI4BWQAVK6l2p35CsDmBwWkEaCWSVwGBFjazcxCqylZv6QA7xFQmaVr7ywOgMYgPxKMZeos1DUUADvE/hM3j+QRwLrKpiUApE5y3LQDHCmLI65hjcEsUDe5MmHI6abMEOXoRa4BrHc4MuOF2DC0J9P0Dr1A5TN7PubnawCJOS3kbtqB9QJpdvDaa/caoBVn0ivzV93BTgBGI2j3kiZDMEZKtQT9TItCNoInnBUvYbsG6IknO2y6PjPZgfaVaaElOitODFPTEnPXiiWl2YElGoM0Qt00D7UPete+xFqsjL3AxltbLzAHEGseLDaiu4gr2CZugzqsEg3Ra3YrIYgzaQTVWU0kH6epoWmGYDuUnkuvTc2EntNxpZSrCj2HXCBHuh8wV94N1VexA9oUIQVAj7Upc1ohLAB4IW2AggBWqhsAhObNQDFIxG3ajXzEywcbGgWgL/GWqdkBZOBNWcvGIIOh82uuOGiVw5S3AJCNW+vKjlTwCqI1xxwAhtNkyK6NtGZFhwBLfEnHWzOPELzZgMrehhQWD25SK6fvtTuxcKRAucGWZmC65DcKmirNNPtZskNjb0AGPo4qIIGW+MCrgAiTGR+p25HGHTZDuwJA6A0tkKa6uyEeGikGxAOnNhQAzrchT1LqFe2D9EyapvwNAaSACnwOp5gWQnMSSwEJ2BZOkzXDAYATcQqAQWtD9bVufeIGGZmogDqqdUNXLgCcEF0AOOW6AHBSdwHgtPECwInpBYBT3wsAJ9cXAE7fz4DNBcECwK8gFgB+ybEA8GuUBYBf1CwA/CpoAeCXTQsAv86aAZsLswWAX8ktAPzSbwHg14oLAL+4XAD41egCwC9fG2AsKJvr3QYYs/fmArkBxhZuc0XdhqaxZG0uwefWYXPNrgBg7vwmHqay254KMDsEfJzTHiOwHQwyd97QgUNzhBuP5Cp/42HwRsFl+oBJXQ1oY5c6g7QEqF1BrY7bQUWE9xHOU9pBfw86MufokdqjKjiSpUeyeQIYWrJs7NPzQWwUyglYDflR6PaEiT0kU52MvUZ7JMVetnmkvnVPNpbZo2YeAN+b6zWFhRHaXpIx0rj3dxfyh1KVqbd3xyDamci1p079YX+dtHY7vICM1OlsP+qRIWmHYfBZIX+GaDCM+SvHiR/ijygN3jgYSnsYpNwMvRGcnsrxHthjTjT0+WFEzoYH4pSiOb1YkH7hy9Vhy3R4FuUOuRQurJ3eDnBdatqxk2VZEpnecnJPuPu17na9frg8Df729Px8fll8/X98SqxfnZ8h+8//AQ==);lineShape=1;" vertex="1" parent="1">
                    <mxGeometry x="761.4206039202986" y="188.97767422080847" width="4.275976339565039" height="134.18920912830393" as="geometry"/>
                </mxCell>
                <mxCell id="38" value="" style="shape=stencil(lVlJUtxAEHzNXCu6q/czxv8gAjATxkAA3n7vkidaqLNHCdzGolKqNWvxIVy83F093RzUvbw+P36/+X28fr07hC8H1ePD3c3z8dV+HcLlIVzcPj7ffHt+/Plwffr309Uiufz68fhrecOfEy6J1gWk7u/pgRPn/j/4ehK/Pz5sxH2VmEFe2768NikO5EPalw9FsuL7w758LBIayuu+fMqS0F5f9uVzFBdQf/L+Yv70g3wQT/QvQcoo36RGok8VP/rTq0QG8N2+FRClMQ8FqQAo3WfnQ2AuHVPivZg5jIGqlEySIqJKlrYsi5asG72qRQrxknpJEDbleRokToBCEimquDQBWBy8lAmQiEoW6RwmAMtVh7X/jkrFih8AQbLfB9TUFVgBiarULFvHcg6VJl+zehuTzxxNAUXaWEBGIY6kRmsSR0DSruQeoI1xSFZApB68Wzm3I3Lo2bKr02i18UJhOlX0a4mdaPf8WkYjKifKphgIC74jVtciGkeAWUWMrl4cUKVxK8k+41bg4pbFE6PN69CszG9KiMm4Esh1iQxRaUnOiADG91aRriGgkfz2K/eu9O14S6/YcReViNHlnM2sA2EHbTxXjdrBRYVanMQnlHf0/QmCnHue7OgfQP9E7bViB/9Y+2LFPEU4Uo60CBdFQCQBswkhOAQUNuQZq2c0WRkgngE04lOfkI8sCGwE8KsCmyhnBjCV4Au19/g9o7H4Gx1j/DohbABsyFgCVxHAMrtNmW3yNPPmSmbt2TJ7qmRG2VM3X+iR9AQLMmTFOq3vVT68P/da3WMWiFiSTPxZOvtv5B2ptIqDrdVNZmVgLbIigLW0TwOC7xm2AShJiei7RzYA1g1s7HRgdKBjZ1pzbAUoz7osDSrT0wmsrG1+nRQqZVSbU4FSa+6OPh9oG17GSrMnlfXMhJRq32Tjv007MEUWHodacZ7KfBI2QByzOwfa1+raVjdzaiOUaoAwxsHmH7b814gEEBNfMBouGJa/geVSm5akxpu57wy6AVDOUxwXli+wdVj7sL8BsNSwEa+NbrUFmQ0wavNEwy+wwNkCHycvse3WeKmNgQuFxqEhEwdHB2efkceWQxQJg2pn6s3NIDNAwTFSHY2brbJhunswtn9z+uaywmjJFk0Po7n2Dn8+9yKmUuPVENDmTPvbfAyz/sluGNOxLdElcj7mJerR+VhokzYphPkYmfp6tTNfKJrLdq+I+2bqZHNee6kozoaX6byT+mXvrLibzha0Gzik6iCN6D4dIAId7CZx7TvPx5TxUqnuYKrnXIKOdP108bEwub7ffSwJzHa6jH7qnP6uuP14u9zfHu/vT4f/7d/x0m+PTv9LEC7/AQ==);lineShape=1;" vertex="1" parent="1">
                    <mxGeometry x="743.5161686561407" y="302.99736061622656" width="5.5857674094573255" height="10.177102412480878" as="geometry"/>
                </mxCell>
                <mxCell id="39" value="" style="shape=stencil(lVjZUhtBDPwav6pGozmfCfkPqjDBFYIpINffpzeuITtauwlva696R0dL6t2dXb3c3zztdzG8vD4fv+5/Hm5f73f2aRfj4fF+/3x4xdXOrnd2dXd83n95Pn5/vD39frpZLJerb8cfyxN+nXDaxNqCiuH36Z8gWv/+8flk/3B4XNmbSsiTfZQWiH2TUif7PB5w1j7h9mxfpell+xwkz/aqkhMBJDEHKGLEo1yk6xyxSmWATUpjozEDUGeAJekshiZaJkCKYkZjqGEGdCmFZ2ku85IGFoNKnLNUTCqJIVVZ7q0BXVokgOhPqMgSAVget98ATRrhNspU+gRoUUIjABWdT2iJplWDhDQDKmUrAI6tzSgA7WXqXVJCDSsbl7Io61DQe+ZSK5IJoARJLkvoB+JSz5LmoLtJIUH36oPuCJpMpY6Oqx7QmEvdNxCcrIRLGlBqhyh0kuGIMhcCYTUWdRtcewMgLMI+PE/npsaZiQSBGGP3gM7yahI3J/ROABgb1QPYcG1dsnlAJC6BazH5LBlxaelI9XVIpHAAJOcSNgqpw0J/d0KmKwhB67wgQNfE0hrGKF11EBt9PW4awmhTL/2iGwAjH1aQeUBn/YAyJR80PQFkLj6tiTUQuOmCLuMRlwDNxQCysH7oXi0hKtpxdTNnQG/mUh5KYd1AjBrmAatRdalHnQBa8sCC+Cgg1zG31vwmLkElVjeYbMiJ81vONg0R6diArE3uBKVjo/oxg6Yt5IDNesCermyOeTHToHxJxNAmceZqxZZkKYpeqdc4YjoPqF6blDa0xPmqqc9RiWOanwckr6+gQpV0A3jRnTDG6CRVS2Ws2JWSZkRKmzEGmRn5C01zL0xQocyl5JduBLeJCt0KY7zUMbkEyee6R+OQaOe5VP0Ya1RTavKFfkcsmW+GPFbqeXsd7yJvVaMvJ7D370t0QUN1O2UF/UkqAHs3LOLYLP/5/Eg5tPUf77jMH/VtEKQze/OCJAwNdLG+/vnso4FmKdHZs42j4NuH7D/4EeN9e1z8+2Jyd3h4OH1wWd/3X1jw1+nrjF3/AQ==);lineShape=1;" vertex="1" parent="1">
                    <mxGeometry x="743.7367332063122" y="285.9495428538647" width="4.815368508972184" height="9.364092967304915" as="geometry"/>
                </mxCell>
                <mxCell id="40" value="[1,3,2,4]" style="text;html=1;align=center;verticalAlign=middle;resizable=0;points=[];autosize=1;strokeColor=none;fillColor=none;" vertex="1" parent="1">
                    <mxGeometry x="770" y="195" width="70" height="30" as="geometry"/>
                </mxCell>
                <mxCell id="41" value="" style="shape=stencil(7VjJbhsxDP0aXwlRu85p+h8B4jRG0zhw3O3vy6mhxCLtJ7u3ArnZM3wjcXncVuHm9fHuZb3y7nW/235d/9zc7x9X4dPK+83z43q32cuvVbhdhZuH7W79Zbf9/nx/+P9yt0guv75tfyxf+HXAhUTZLSjvfh+eOMr174PPB/mnzfMo78IgHyg5IB8p+0E+Uy5QPozyjRjdJxKP92dP0QNAoBZHQO5HngPUUWMxUcWAkkZAJodsFCi30aZMlTFg1CFU4oABPABipBohII1XSnIl5AcBlBHQyCFHCyCPgZGJJ1cazVo8NeyHNFqpNPKTE0ZAjT1YLgU0bKVEZYzWJtHVzgOi6yq+AYQ/GQCqjqVWKaTzgFyIDaAAHXLrhD8CICsVR2UkUBNOA8cJoLIGBMAHuVLxGhCBWUVp5TgBILNmSUtNAyrgdHYUkwY0oENK1LIBAAIJIXlkHDsH80yURGePAK6OfMIRkHKFijUTymSRkokNVH/EEVFFX+qfOA3IJvoSzPcSfTlrAAMGFSG1AThAiMqU2ACA42qhYJR2QOnmjVkTLBBLVkka4AGDxE3enIAodxScR4gCHCFppRYNQIlmeV11skQlpbEuiwJAWld5bdJxAOFanckbuT85HUzRpDIBAB3yWx461gElS7FJ1gAUrkI5DUi9JToHcCY2MkqWEgjG08isorQ3seTBCSWY7JpgeyKtQrIAxFEJf0tq4IfmeuU/BiDKyQnRKI1IXXVPtnwCMa6dsFJGBJIya0MDmPVqwEd78tGe/EftCcvAoAC115jThNBDjSTjApqN2CeYowEC+c33LHfhhCLyow8mI5CRn8xYIn/VEGfkJ1Oi16VnMoaK/EjNyZzL1MYImgzSrGkzmdRZz3uTVYC8Hb8/2TVwT54XLjNYN8OTbQnr7DtZx3Dvty5b9zhtfrxNcroA4mWV6VDxLky+7pV4wqEclXhAkzzFqsRRsS967newiDH3CvQuj5pATjoQcDJnycTpCnlRl7Ux0X1E36blkb5CIw5XmNPus7C3wlvvdlkw/MPedSIvP96XvA+bp6fDjvj4vV4Ky6PDQjnc/gE=);lineShape=1;" vertex="1" parent="1">
                    <mxGeometry x="802.4335346756305" y="217.37050687306458" width="0.739451064907244" height="19.147064216298702" as="geometry"/>
                </mxCell>
                <mxCell id="42" value="" style="shape=stencil(7VnLctw2EPyavaIADJ5nx/4PV1mOtqxILll24r93M1ugiSbZim85+Lai0ATm1dMYXuzNl/v3n+8u0X95eX76dPf39cPL/cX+uMR4fby/e76+4NfF3l7szcen57s/n5++Pn64/f35/bJy+fXX07flDf/ccCk78wsq+u+3J6G63P598u4GeLg+bgHBVZsAMbuczwGGf887WHOhnANic9YnQA7OxJGiuZInQPHO13NAwAHmHaofex4DIhvdvKsCUF2n9X284dirLs4+6tl14dToUpzXd2dRrSeDsb6I9cH1wOubOE9wxfP6riLgYp2zziNk/hzghzu2GwgDPKcE1ldhgHdpZ0ASAfYHDg3y/b7M65urwkGrNzbrTb+fEqK+4p+wW5+DWh8br1f2Bi6AnobHTgqgzwnRmuuCJDr7syEFxfmD8YFqHLx0DED85xMV2KRYKLu4oy0vTDDv2uzTBC+LmIFJOzEpAGIHvC/MXkJcTNGQDVZb69JcUztU52eiqK6l8/UZeTpvYJLas/F68K6IWi4uNFqvaCV3JlLdagqId7Y3ybIsmd/fXBYBKM2lzAFIwoCK884hRnPLIgI1jRxbc8IkM1aEeD4SbKhqB7QKirG2ocXRizYKIYodWub2gcT1ImytjhOvADwRdNF3/Jh19ffIHRCp6AXhocFT5UC0RJEaS8eebShVH6kzXRSdGpsevCLQ1USXWrZIDGjKr50D8YryWnTNTqopRupr31gBQcpNAIjoAVCs2le3/9cd6nD71gZRcgCQHFy8pEJdDwLXRMn1chA41c/7jgWWZBLNCgCj/K5SEgJQOgOyDlzIDFAiGIB9BUWdfMQCACR1pD7YfQNouqibsVtN1OhScY0B6qZwAOiDqk6PNBuN5Iu6pvMOUFUc4FYSDUHS9xI4Y0BURiM10g6gs7U0tkGSa+V7MwAyW38ZgI5CAjRKiY6eZbPRuQ1xcNYV20yVOcl7M/oupXfqw2/HAOM4pCw1Ma7VlEtJS1yokzaTgGWpsKB/6Ca56HDhVtwT6GoFpa86EOqLNCtEaBPJVyBaZ7eGLKmyGN9+QhhN7Biwu75VKeHyrn6yjALyhmSuyfaziClSS5KTUmMSW8XQ8frMHAaPKumT4qC4NWbRddEabL1erxYHDYg8UsGe6moSdw00xyGsjwGBawd5ojI7lN3lLUmZEQLfJ1HgalhYXaApRhjFdDIF4KlEcSby+vcY7PcY7H89Bos8E+pJzyN2c+M6UvDkyjbGIWsJN6lbUPPE7IuOV9P4XU4vzUHNwQr7CCJBiWYzBlgZ1HcM6CMHtiMM9c0iDh7ctAM5jjdmRgCUlEo7GwBQkhaATJO2NMaBZwBKDQDUJ4iUduSSZDsAoAQGdOWlxPQIo1U1oC1T/wBApcbydSoxQM0XAeD5WRluOAU0BqjLywKgOFR5+//1L2yvA/Dj5we9j9eHh9v3wO3/+QMgHt0+HtrbHw==);lineShape=1;" vertex="1" parent="1">
                    <mxGeometry x="797.3789829998238" y="218.71205838991136" width="9.745842529886389" height="7.475763914933766" as="geometry"/>
                </mxCell>
                <mxCell id="43" value="arr[st.top]=2 chota he 3 se to&lt;br&gt;&amp;nbsp;isko pop karo&lt;br&gt;infact pop karte jaao jabtak st.top wala bada nahi hota" style="text;html=1;align=center;verticalAlign=middle;resizable=0;points=[];autosize=1;strokeColor=none;fillColor=none;" vertex="1" parent="1">
                    <mxGeometry x="705" y="223.67999999999998" width="310" height="60" as="geometry"/>
                </mxCell>
                <mxCell id="44" value="" style="shape=stencil(lVjLctswDPwaXzEgSIrkOU3/IzNxGk/TOOOkr7/vqh4pIWhtxjdbWpAgsACW2sWb18e7l/3O9PXtdPy+/324f3vcxS87s8Pz4/50eMOvXbzdxZuH42n/7XT8+Xx//v9yNyPnXz+Ov+YV/pztWpPaZivTv+cnKs3+P/h6xj8dnj/iq6TS4Y3jJ4mpw+NBJvgkKXT4JjkRfJCp9z9EqXHboFYx7Q2aWCAGWM+dOEsmRyhVJusMosnEDPC6P3NSsbJtMGWptTeootO2Qa5+h5ylkB1yEI192qJo2zZIUXKfhwnMIomL4EF/hgKX6rYBiFD6sFZQlRzakLg+0zVL0m2DgCj1XK1tCcNlgySx36GZKDl0UJ+4me+MrWJ9GlBPRoI0SXAOFZrnJLmPKfqBkmKIYq7aVEVJTNe36wZrkLfwweMTqR3gq8ez0lEJzeMD6V/q2xfwSvE5+AQ0kjD17WtenyRAl6L6iCd1iRIpQ3yI/6j77PGRrB8uxD+T815an1X9Jf8b5YOPT1s83Ip/9fhAmsqYX+Dp+p4/wFP+e3422lHA/yE+lfJhrK9C+TbWb+b4kT+kweG8Az7Q+rWxXigfklsf9UjjM8Xr8OVKf1q85rzDHP4knhfrkdf7VXiT4vxpy8jZGBht7LckntkLFQy8RviG8ebym+lAxQROjtBQLiwBUBHOo0ArHirCURqSkxmMQ7ViLDNh07yEhRIK5NAxL5J41Vpp6atbas61Cag5KjB1ifpqYJSnufjGDkXKtBY0r/VSJRV6kyhhIc4qw5tMhKqlDAZGtQ1uBqE/NPRUY2qu+CiFVZhfvt2odwl0NLIDyOzqh49LVEvuPYIIZ9et4ueliTF88/1Fqfx4n77veCbPgLfi8Kz9Ah/9dZfJLeDdvOdyF3h3hVAqF4F3/UupXJmv6x7Pxgfwbt7wm+WM9/miVyYdBIIujNrcwCdg+sQhT4jKE3Dd94xP8fjx/vHk4fD0dP728vG9/9iCR+cPNfH2Hw==);lineShape=1;" vertex="1" parent="1">
                    <mxGeometry x="733.6219264060929" y="279.3042343605692" width="23.30468277152278" height="21.053577853011053" as="geometry"/>
                </mxCell>
                <mxCell id="45" value="" style="shape=stencil(lVjbchoxDP2afdXId/s5Tf8jMyGFKYUMobe/r7aMAcns2ckbeHWsq6VjT+HpY/vyvpk8f5xPx++b37vX83YKXybvd4ft5rQ7y68pPE/h6e142nw7HX8eXi//319myfnXj+OveYc/FxxTjjPI89++4Pn/wteL+H53uBP3VKsSjxTcsnim6pV4o1aXxZ0o19u7SKkAQKQaFGC2PwL7mULRALERATKVpgAhUAMRks9Fa4iOfFoGRKamUxArReC0fOakACmRa8uAFKk5BchiEkqbo5A1IMM85EJOO10czEPxvW6ugASjVCQPBlApA0DlHsQOqI4SSFwNVoOsNKRBYqKLT1Z8AIBKzZgkmc7LgObIaQ1NvAKZboFYV2vzPZWPAXKAtEmywuCItkxZl0ZLvboeA5o9oq32gl8CmGqVFQZ5mAHFAlB5O2ZitoiAvBYVzQISimvrpXMHKKA25jBVC6jgyM37DSY1bFLWgLs4LCHSYBPq3/I5jjZhDXHIdcEaTGea3cLlF4ZERJyIUYPHcR19cCtOmyhdG8NiHkYA1pAHQMVhrTxo8BgwZJpxHtoQVrdyqgcNAZj0+FSjjv+wceSVNjCkuq6c6mABK82v+AGAOr5Y/FlAGgHYh08CMgXjdMatTEieOaOJGB05bzmWDL6AwsoDEXWQY8lgNmOuyqnFZMBrH2qBhEbIRdS0r0bYXIXQeMNPfCcgS5TJaCi4vIWUsU6cbOER7cu2C8gWqFcKsWSdOGGOCZgk1DUb6ioaQBeIpY/ZKznO5IAGod9GQ8SZFoIfdS1FbJJcIaI2KUR4HtzQ+nzpw37pGmQ0eAedlrakq9sl2CmzvTXJTQ0NIG+HboK9nvu8vG7fy2RB3Nx/GPJ07oPpJl6B7cMUYXjPeLA7iqSI2/t2wLs3I45uGNzDfBN3oDKvm93EEdHmPn/vxKGr0QZyRdy6ytDVVKyrcPdPvXOsisuP25PK226/v7zI3H+3TzCydHm+Cc//AA==);lineShape=1;" vertex="1" parent="1">
                    <mxGeometry x="729.9285911928981" y="280.73433965373584" width="32.45570850940296" height="18.93169123231357" as="geometry"/>
                </mxCell>
                <mxCell id="46" value="" style="shape=stencil(lVjZUhtBDPwav6rm0FzPhPwHVZjgCsGUca6/jyauWVYatg1vPlo7o1br2l28eX28e9nvgns9n47f978P9+fHXfyyC+Hw/Lg/Hc7yaRdvd/Hm4Xjafzsdfz7fX76/3HVk//Tj+Ks/4c/FzlFI3Si4v5cf2FPO/3/5esE/HZ5XePk3KHzI5HgbH6hqvC+UAZ6JncZ7qnEbnyl5ha/k6ja8UcgKnsg34G2g7AyeA8DLdfTzGxXAptDpnaUnIDoTtfoZ/qMfDg6DmCgChmKmrE9gpgZ84EBBGyTGIS7UWBlkppi2DVKkrINcJC4FGEiYNa2ljEC+ryIeol8MJHDAoDhywRoEZJDImRMylJ48z0hPnPZAe3ViKRdK4IRayBkDTwykURvVKdKIpSbS0OLjPOrN+wZMIWq1FvIeGKRRHZZ8KFAaTfLLFKRGDNTaGiWtVjdK1BbeSEmkgvGlGHwBBU/wVeMDJSALwTdd4aXkIYIEr2NWicF9vFv8W5Xshj1o2gMvJemKC+aECqtk50grW0hFRa8t2b4Y+GuspjYZIGW3kVqrKzE2iNU6japkNwiWVgaFWwxMdkq7g81zMqiUMD7q5JQ4o2QWjkzYxrSxGQSNl9QBBa+nZjB4h+9TbOpHTGjVeD90uKlrzY+Uvyt4LYlCEZSW91LTwXlkPsHzqJcfdEEGmHglNXU58ksB/GAQhNWAffikQRl5tTSdRbhbTceUVBlpEvKBp0SQtoZYCkNoS2vOFFEvn+JQZGoDWurNX/tQPZUr44U+QR5RAa1lyrbuFZp40qg+i0EmBrTOQ1ivIOCEPuYZ8TncnWWS9OZOBfIqs2qq1usGnOjTsM7RynAD6/O21ncP9ZWJ3szbCXaSvjOYkSHBJaxvJfoEXhahrb3H6RFA5ryKFjF5nhkMHew98+YmixLshnaLeVsttxZPnaF91QMXYkr6PjEO0jYWZ1OJ2Q0pbizmZjaXEKC1zY35ZhFFhEOYG1PgamlDmeNGG1jjAZ/Ti4h+HyBSN6bYBR+Gprbwmv/sYGdzY61elWw01Tq7TCU81E6tOYWxaHzs+YxfLUz3Z9xyJn5k7Uc5L3itf8Z17rMvmq7j5cPbW62Hw9PT5aXY+n/7Fkx+urxBi7f/AA==);lineShape=1;" vertex="1" parent="1">
                    <mxGeometry x="911.8985232041209" y="228.04092674360913" width="93.5371555423545" height="3.083647420899638" as="geometry"/>
                </mxCell>
                <mxCell id="47" value="" style="shape=stencil(lVhdUxsxDPw1edXYli3bz5T+D2YIJVNKmAD9+PfVNfUl0t0tw9sRVmdLu5L3vOOb18e7l/0uhde30/H7/tfh/u1xx192KR2eH/enw5s+7fh2xzcPx9P+2+n4/nx//vvlbkJOTz+OP6c3/D7HxUglTFEp/Dn/EijUfz98PeOfDs/X+E6SDD5Rztt4jtSbwReqaRufM7Vo8I1q2cYXpsIGHwPVsB0gmUK3AYk6WKFmkmoDCgWQctMV3JYqrGmPlC0HWuX/m1wPECq2qMpaB1uKQVm1S6RMOYIlKrHlmZVolESiZMvEQgHUtZUhnDmgU0FEVBKbdWZKiGp9n6U6V0ogaYnEtkpFqQFqVfUlq9ai8gYrZE1aTIAEKCZuFC0PKmAG2tCGcw0kjTogLsl43wioTLmBgEhiiVNmugD1zfKfe1rFwiCAPQ9NKIOk82Bp4HujhqpKzW6odyhuprjAN1TTRUNfGnA9Yz9VpwVAL2i78yIBUNHgN6QFqqCgutvm8Wj/i/Gi8yPC/UT3fqEENBd8J/dCBQ28MRhmfB7n0Abe13Oe+hsE17TAg3x5yOsKjwSUfddrvgzxZVFPdOTo6uzxHfCreLefShXvx4451Y/A94dFgyE98KLhO1UwghKJeHwH+tch2hZ4NLEoFo9H+YZFffowDVv9sqhnAvVf60d0kAVviiaLAedPdvopUA+fxauJcw2gRwYaiFFPRctAbcPZbhlZ59LU6GWwwlKjgjWUuh8SUuCQ5nkGXpkDAayp/3HWtMgQ4rpfiSPFK4MjIIfSvb2eLBQYvFJHH84BCR7FtVCzUlXLU0ArN/VcNgfW2YuMZvfDlwM8DFSbjmn9aEG+sQf/ETU5BkCc5uDc9TRBQD+oNoN1darfCHIQXcFqSV0Y2lLRI80FZDjy9EvNzRi1bcjwqzMNlrhLl6+36HxmzP0AnWxcTJn52FqnbXwzXeCCWPYkZziCuz8SeJy565KgHh2cwfhqni2lD759AY/oE9ZvJlLBqYqDIyFoIe3bwwd178XBkTWYVODx8EYj+BuKD6z6Z29MPsTrw+V65uHw9HS+3bn+v7/O0Z/OV0F8+xc=);lineShape=1;" vertex="1" parent="1">
                    <mxGeometry x="995.59635659417" y="222.0857581991661" width="16.957730680933878" height="15.279953816946445" as="geometry"/>
                </mxCell>
                <mxCell id="48" value="" style="shape=stencil(lZrZchs5DEW/Rq8o7stzJvmPVMUZq8Zjpxxn+/shR8V2N650Kb7J8kE3CWIjoJP/8P3x87eHkzPf315f/nn4df7y9njyf52cOz8/Prye39qnk/948h++vrw+/P368uP5y+Xvb5872T/9+/KzP+H3Rc5J8F3ImT+XL4x48/8Xny740/l5h1up7oBb8ZHhqRxwJ7kwPMYDHsR6hofjYpIYy3CfDngRHygejlu1k9V4pZogPq/wWSp/vj3qctPunXyUuMRXCfRsFe+92JXn+yQ5LfDBiOXHq3g/vrmTT8NA7uTrxFUUH51Ybm+KD1K4/Sg+S3QLfDJiVs4rOYkr60lB6hKf1/SZmn2uPD+3eLGy39zsp67wUdyK/+YkdWk9RdLKeoqZxGbNt+C+Yv/FS1zxrxJn4VnxaeSmO/kseWm/ReqKPuti/KktX6z4Y3Uz/QTNF66fY+6tfqTXW9n0WAnUII76Yyiaz1Sf8ZjvapzVDl7zhfBOXD3yifp704bXfCbxOcB6khRyvmlE+z1Pnl/EZlgP80cjETacmMH5KysKLCNt9dROwLGQVYfF7wSYD/TyUy0pUqfsWo0gQLzGG1DrRCBITHoPhviBr+AIiTpOCMNv9+dAMlk0V0y1kD3E9jy1h0yX1FJ7yFogEdNIZdS2m0Ch1URLprVqgUBOOtcRbXcCzP+L17eHWqnxtXwRrBbwJKK2BJCCFmB7aBHXFS3AYnDdSoj9G5hAy2EBtERsqV5VK9t0hTxVqPH1LToQIOfQBPLSSTeBkrRAJebdBCoKsEBmzPD53UEYEo37K7IWsJNNgG24iZrA+lg0fre1vX3zN3gU4LahM0qld66u9gR7YOZaIFY2Af4G1BK7tncBeIPhLpfVwRV60el7gNBXWNjYFrAXING46wSjAPfRgG/gAgkFuGkUdGpurdWDWrkD6YzS9MaXhAIsQXQBpwVYGu0uCm9wPGosCkTdxOqLZAfnR1DZ2kzvse1WltPxu9LGVMujDkIfa/OV7WK9T4vEg9rN98pBsOLBS1Hhu9A9JKy+yyi6blVMOrW3AogsKSYQyMOnblV9+gKXqW20ujKrTSe66Va56iKu3SDIG3ptDG9glWuvvqE29sQ0Wn3v4MrBujDtBoHlOqvJbL1yT0zsHr1V83dW3+2eFZRAph7XbnIlagFWChTwn0xbJQlqvjzujjeuug6uD6x17CDW50nrOALPWscGUjQ/AQOuxo2oBUS4hbIEjcUhb2Xg83mrxIxIcmcrxkAZxls96JW8lWTAKXmrCnneCkOet9qAn7TykOetQuR5KxJ53upEnrdSkeetWuR5Kxj4SasZed7KRp63ypHnrXjkeasf+MkoAXk+qkCej0KQ56MW5PkoB/jJqAh5PopCno+6gJ+M0pDnozrk+SgQ+cX4MxllIs9HpcBPRrHI81Ev8nyUDPxkVI08H4Ujz0ftRnfJCm1TQDnAG7pGl29hYgyqJnaT3KL6E1YcLZVU8bnp6hYeFc6aUHbobYfzkU9QOOuUWF2aN5xEHavbgPyeanUTkONOzzIMTdFOl1RbDXcDd7AYWjB7OCaiGacb1YaGDxiqmNEeuoWv/ARoircP7782+np+err8WGn/f/3rpPbV5ZdN/uN/);lineShape=1;" vertex="1" parent="1">
                    <mxGeometry x="1037.1276221341282" y="178.50320958922856" width="55.04878265300387" height="134.3263310116544" as="geometry"/>
                </mxCell>
                <mxCell id="49" value="" style="shape=stencil(lZnJbhsxDIafxldC+3JO0/cIEKcxmsaBk3R5+1IYjGtR6s+Zmxd+I1HiPgd/9/788HY8OPP+cTl/P/46PX48H/yXg3On1+fj5fTBnw7+/uDvns6X47fL+fP1cfn+9tAk26cf55/tCb8XrliqqVHO/Fl+MeSWH74u8i+n11t5Q9V38o5shPK2dvKBiv+/fK6UYiefqRYo7/r9W0MBLVDW510BTwkDOfdAJgdUZiC5/ogsWQOBKIBI1kEghB6o2pZ8r7T3FCwG+hV8poh18La/Z0sBGBIDThhGJJcx0N9DKFSw0sI0oiMXMNDbXoyqDgLgq8S25PpjTXa9yq1AWM9tK5DJKKckAHZBZUt9BMhOs1YJBArKTQsgrVFhK1B2Ahyn4i4dCtvSPsBT3rclDgK7TqmkvTpkyoq1CoA9TjG+HqiGDI4aI6CF+z5UVguDAOc3I1Zw0Lz5mmwfNaonjzJipDQAFZwSn3rtI18NFIHSfCYietdIBqzAKsYkgQh04A14ASQYNfh5ZQAiAjLZPj9UHJdqWa3/BoArVDICKGSA0tZcjfNKVIroXPNwEZUycLlSqQwrFBxcTZJABT6a2DjzAAAdQpZ59+YcpoTnFFWHJUBk4voo+QFAYWBwueu5zRcYTINTFnAgI1Vu9wxuIcgCjuVRtcQVZB6u2QMFXFrt7AZA6YSLqTpsyQKVuRCxw5YQkP1aNm/cEmcbUfEpSnPMGL0HHWtzrmEFdG/s8GXQARkGB8oSJIAsj7O+DJTYtFNZy+aNzsM1atrpn1wcDceEQgD7Tx39EwQZOzRxShhzkx2hOLk3EO+XlworqWGwI5x73FoWbUxugawwO5w941qybEzPWfaHWv4fAh4uMKwjIy4YlzA2yH5SKZJsGjwTl2G2rG61sdBjo8giHOFSkq1CDAKUYnUKIE8eAaXgngC4pJ8AuGmYALgtmQC48ZkAuLWaALh5GwGlPZwAuAGdALjFnQC4iW5An3iUNn0C4Jg0AfCoYQLgYUYDdo1LJgAeyDSgjxrKyKcBfaRXhkoNEHMuPLZiQORzZTDWgP5YldFbA/rorQz3GBDtoTI+ZCD0oVIZUDIgSj1lBMp/i0GAMmRlwPRKK2PcFu5701AGxQz4PZNoyyWRsAw46bZDv4on6ZzgTK8AntSPCZHlleRjhLxFrsMlSBHyqGbw1+x6Iw+e7zlGy/0bYHMhrcd3Iw/0jX6yH1TJs037Hfvhyt/KNytIX27ARIuHz7NN3Pfc1zgJw/aw+82QKs8f/r2Gejq9vCxvsW7/l6+t+KfllZe//ws=);lineShape=1;" vertex="1" parent="1">
                    <mxGeometry x="1086.4633451212082" y="180.2503866971341" width="1.0734022350929577" height="129.8700695992126" as="geometry"/>
                </mxCell>
                <mxCell id="50" value="" style="shape=stencil(lVjLbhsxDPwaXwmJelA6p+l/BIjTGHXtwElff18uFtouufYYuTmboUSRMySlXXp4f3162+84vH9czt/3vw/PH6+79GXHfDi97i+HD/21S4+79PByvuy/Xc4/T8/z329PE3L69eP8a1rhz2zXErU8WXH4O39hqvOHrzP+eDit8UytG3wnKQAfiS0+VirxtoF06sU6pEsgA6HmDHSHBAwqpWAMUqRagUHZGFSShg2qMciREnapsDXQJRgYNIpuh04B5SGM9YZBYSoCE91t4kohAS61Stnt0CiBKPVAIRqDqlECZ+iJOFmDTAmcoReqzRoIVXCGLsSWSxKooTN0inYHTWUDLsWgp7ZkUgmmDrdgZyAU8CGqNdBIF2SQKdpE6JcATt36SOxiUEcZuW6QBv0XgwbDpArqlkyrwF21qOqB26JTA6ouQqV4n1AZyEI9+FOjuCY1cC5ptQVnYHVAfOaQS7GPPK24wcClOCrjgg8UAT6QWLyWZ+RQ8FxVfIB4JwYtbEgM6q3Tp5CA5hBGM1vhI8hApGyVoHKuYH0e3q7wCeATZfF4Bo0h+3xN6yNSX1lfkGoodh8f1GzrKJ8rPBL+svsqv6g3aw/Z8C0CPhQ/vShekIZ9U5v4D9ZP1MXjM9ALj26xxoP4RO+/4hEfgvdHz9sgPm3iw6Duqh5d/BvkfxjqXvGhQ3/yRo8M4h8pbviP8stjCFrrBeY3Bo/Hety2e+R/uYIvUL+fw08FyBV0LTFA8Ekj5BinmgO9PofRshYDlSSgdAm+ZnUd4JGBUtKSqDMJKiriWap9NYMsTEVH/A5INq34aVkbMcpza5so1THd3hqhxDK1Lb321g7uiqAzUkQTf/XThyzqvjXxV1scdbxGdzutJe6aowP8nXsRW/LpFYEBW4X9DgVP/HpEtg1c6ZhQA2xjflguUhXOvko+sXnIEVKjbqbAVGHPqZuhLgVY9GQjUa0jqOppWJ1LjKMk2c/KUQd0fGWuTtNU0AbFz9aM81x947nDPC1y7gBwTpZNiQmwJE1jaHN46H/z8QnjDnZLau5Oh29DWkxcwu5oP/rBMcA5UGtF8v6gq9D0muDj0/GFMVu8Ogj4pnix/jM+72efve7i9cf/N7aXw/E4P9Gt/+/f5PTT/J6XHv8B);lineShape=1;" vertex="1" parent="1">
                    <mxGeometry x="1059.3861160454735" y="279.0531801962086" width="11.263249817570106" height="17.85187501822086" as="geometry"/>
                </mxCell>
                <mxCell id="51" value="" style="shape=stencil(lVfZctswDPwavWIInuBzmv5HZuLUmrp2xnGvvy9UDV2Bsrb2myzvCvcSHMLTx/7lfTd493E5n77ufo6vl/0QPg3ej8f97jxe9GkIz0N4ejudd1/Op+/H1/n3+8uEnJ6+nX5MX/g18wqlPJG8+z2/cOTc3xefZ/hhPC7gPpCrHT75bXwIxKXD17qNj4Gi/b6nlLbxSfHW/wjxOZBPBn9NwE188RSjwTOThG2COBK2hAI9EiEWG3EkASWokZw3BE1yBRZqoWotTFmO2wR21yZoDM2zFGCiti5ohKxBCCBk8rYvSqIALORMwVpYeLlV6q506mUBpcuu5f1KEJinJJRtM01hgW5KhXznEq5EylRsN1XXGnjLAluCFHI4hmiDlkgMCJqlaIMWnQgQtNbB2aB1RiKqQ6LqegKstLS6LggZqFLhvg7iyQOXispY7rOUQR1KJF/7OmRkQXVrVWmUVnWpE5pJGECWVMr8qlvhPNQm1Yt5KEhctb2t0OjEwdaIFGpPqMglbklcuFSBbKRKoZtpnQdEKK1zFmlF3TqNaBc0U8AEsdKnR4ADZ6K6JNaCJHJIBCrlrvn0FEVp9cSrAUJnkBaurggOWXiUoB53qqFOohNlmmA7oonxPOTWm9dzVCgAC5Mu2cJ5wWLs+lPRMyXgUuR+W+LadOT2eqVBd6diaQvUnfsbZ0pgHlb7oRpgEEKiEvvvC8jRaplRPAPp9r1McoTLD/c6zKEdeDfx7sa+l0BTrDal+hi8wPV55U2C8FWwoQnBfblUGXikVK7tlfd1At5cHryI/BeuD//uPG/j4TBfmZb/93ckfTXfr8LzHw==);lineShape=1;" vertex="1" parent="1">
                    <mxGeometry x="1063.2157663720595" y="278.4028947352448" width="6.769244386927533" height="6.028496993971562" as="geometry"/>
                </mxCell>
                <mxCell id="52" value="" style="shape=stencil(lVjZchpBDPyafVXNfTw7zn+4yjhQIeDCOMffRxOymJG8PezbAt3L6GpJM/mHt+3T62Zy5u18On7f/No9n7eT/zI5tztsN6fdmZ8m/zj5h5fjafPtdHw/PF8+vz41ZHv6cfzZ3vD7wjPkXSM582f+wph/X3y9wPe7ww3cUTQd3FIC8EgldXBHOS/DK5X+7Z6SXYZbJ/GBnAP4RCkKfErAWENVvr9WgI/ka4eP8Dxsb7UC78H7fSCfBD4C//hCOQo8ilbwZLLEA/+ETE6eP4PzREu2SHwAeHa3woP0iYWSk3jgz+TISv8U4J90dd8NHtibCtUg8SAf8mfnQXhOL78GX8jI/Cx+GV/M/POdeE9B+QfhOTwyvhCfqcr8h3iuL5nPCF+t1JMBnu1dc/4aych6gfik6x3i81yud+IrpT4fWM1BPTI+9/hAFsk563nvH2vn/rFEqH0BcMMoQIEaoT+Rz2QAwZprf7v6yM2qsfgXvREpz21hkdBXTbHkgUw0N/VWcyKGQRz6OHPk3SDQgsBSUCAhCoKnAqSUCaIUuLgtNjr0Ws3q9787LxFkc81Q7TQhuFG6iiO5TB7HQRhtw5zxd7o1kcWpJOJmqWKT86p5S2VeoYjxIrUtjxiDWug95B1Mi0/qk6cMNBRpCeC2XnEiCZHJee67d8pYKXDu0jrJyl9wIgkh5vr0WPdWElRrqAPtVr1nRFDNbURQ3XNEUO15QND9f0RQA8aIoCaYEUGNSCOCmsEGBD3kjQhqimwEoGJ6TB0Q9Bw8IqhBuxFWTfJMcGgxVatCI6DdRe0ijQB6rl52GmHVNtUIwGi9rjEB9Su9DzIhAC/phbMR0AasNlomoBVer8xMyCA19E7+ITx3Lv1MQF7Stwo1wiOpW4umncBJ6lJkML2pOxfWehQ1daVz01QXCC7IP4igIZpZT24TFSiMmVv+tX/medJawBvRoEcGm95gntAzcKheAdL8hvvwXHkV2ivOw0MP9o+wl8e8CBJI+ZNTFo1tKl5x4B6RDryNwGxYdYM4hPPDx2Xly26/v9x13v4uLzf5q8vFqH/8Cw==);lineShape=1;" vertex="1" parent="1">
                    <mxGeometry x="1122.1503463769402" y="233.77516454115562" width="107.3203128750064" height="0.6861026174994385" as="geometry"/>
                </mxCell>
                <mxCell id="53" value="" style="shape=stencil(lVjZctswDPwav2JAguDxnKb/kZk4taeunXHc6+8L1aUiQvZ28qY4CwrHAlhqIw9vu6fX7Sby2+V8+rr9uX++7DbyaRPj/rjbnvcXe9rI40YeXk7n7Zfz6fvx+fr369OEnJ6+nX5MJ/y62mkirpNV5N/XX5gC//3h8xV/2B8X+MzU0oCPJAXgG4Uw4JVSu48vSk0GfKWs9/GVKY7nByYJwEBJ82gQKYOIG5O20UApRGCQKI8hhEIF5KgVb2BFQEG3RlpGg0QCXArMxDxaVCroFZV0zKsIVZDXZkkZ0yS1U+VeXtPIvDRz8XblEsXxDcnyIIBLmepYalVM1kpxzFIOlEBe1ZI4upQLZJ95/I863aAI7LdkhRtLXSqkqwQqY4NWoQKyFK2uYwzV0gAKZ2x2XGoBVjr6jjP+NpAkO23M0YK+dwwcMewFFdSZfYqmhgJlnifKAs8gAPPWBVwh77ifNuNtIkB8yB6P8sO+l1uGtA4rf2wqg84MlFd4NFwiRV3hEUV7NZf+ALyQNB+vAIJag2SPRwQVvwMt/wrqJX6nGR9ihv6wxzdQL4vX4RslcH5cxWv9AvMfVv3SwBIPpCt/0IDgnu0FPgP/bXOIxwfgD/uhO203iPcDrkA+GL55fMTzxPE5w5nOvToLfIADNDn/lSqcnx/Eqy+ArQxFGyD2fMwGiSoyMMKMI8KEnoCRInNHzXtSO2tvL1Yr0Sg/TKqiGNTUxBhDFjils/oYtPTFc1uvJB+Dhq4Mbyui0Bf1rIiUMiB2zX7zmb5Ak8hEWh6pKlZ7pBvFu2SCBMrr1LXxrEytGUDztEg8ptXYxSCGOt8gZj3R+kK8bbCa7wHv10mSuUuI3QHAwrRKu46zS0hB166yGtlUwQu09YU6twMFwFWNfWG/X9NQuxneqX2FMtaI7FaalR0U2fBOciU4UQ3Pjnawc3S1ciLcaBPeXdFI0PnBr4QA6zvFWx0e3TGnfI7nW6Oi4RW9ROA+/u7hneRi2GMq/jKHFftHPzv8H28P7984XvaHw/UTyfL//puI/XT9niKPfwA=);lineShape=1;" vertex="1" parent="1">
                    <mxGeometry x="1215.423578885875" y="229.59992735091794" width="17.72455401593051" height="16.358453663053268" as="geometry"/>
                </mxCell>
                <mxCell id="54" value="[1,3,2,4]" style="text;html=1;align=center;verticalAlign=middle;resizable=0;points=[];autosize=1;strokeColor=none;fillColor=none;" vertex="1" parent="1">
                    <mxGeometry x="1100" y="177.82" width="70" height="30" as="geometry"/>
                </mxCell>
                <mxCell id="55" value="" style="shape=stencil(7VnLbhsxDPwaXwnqLZ3T9j8CxGmMpnHgpK+/L1VDtkWtR96ec3M2nJVIjoYUd+Pu3p7uX7cby2/vh/237a/dw/vTxn3aWLt7edoedu/ya+M+b9zd4/6w/XrY/3h5OP79el8t66/v+5/1Db+POBMpuoqy/Of4hMn6fw++HO2fdy8X9p4p287eknPX7UMgYzp7Txyv28dIwXf2kWy+bp8C5f79hRjYZ0ccOntjKTAAZHK9wxIyX64DitERlZAW4HLxZBQgElsAkJimDuAMeQMBkXtAIou2FCjFPmuOHIiSAHLvgy/ksQ+5z4MwZeKDAkRDZtUK8cT1q4CeeslQWgcQaqwCZKYQVgE82UkeFCDB8zkmrjAxovcIsI1dy4CoT5wQPiUIiD296xOgSSVRyD0gE6MVMuX+PJRCFkUpk88aANkqW3IaEFBYJUrDlhJy2i8AMnJadMlqQAHky6Wp0En5mNuiy4jYuHYzwrUTduumDLm4xu1UyIU1gU1JV7hJ6uTQ56QBiBwCCMOWLJAyKXKx9IDUwnANoJ0OOEqxFcETwME+ICWdaqELLNRJR6nyC2RaEueVlOUmbteooVfIFFEv4KkYDQgIkFtMLgFIvw2FYYWIdMOTG3yANWjolwRQsDKlrPMA62hq3csFAJFPADxkGoW19jNFAxICSMtmNaAAH/IoAlMl0+o6AVhdFmdbYjJDWJHTKbfzdWNY6xEdwgpVQ4rWkDhEDdlSHuiNyCdOl6wBiN5SH1QTNzlA0u4YqwHwiDL5YQXIVqd7gYnMCL1HmUFCJgdIr4ClsrY7w3lAYvw/AJWHSX24KPw3liCpgVFVdlzklrs4pGQfXdytXZxfh/jo4m64RMiWkloBX1PSSVduvAjVKCk24auWAFQhnVzmFgD4ujgCJhfSClBqia+8CwB8qR4Bk2t7BfRhnQwGauvaV97J6KEC+kxPhhsVsGp8UgG9D5MBzcilyQhIAKrtq0MmTO/Qi0AdY+ED5Hsu1UEZami87nWtgZM1yavtE1fno8DpOAyZjIXNQMiaGqV1/Mvz1qJ3FCH1XNbEkBgAB+R1qm91ZIDEWDLKXzhu5dYDn6fLBbyd20k/mycgLkOLwfCUsa4h3E7dcgvT1PxsjoTL6iEUQ9nyeqws9wFENF0wxXfUN4+bQQXcsB4bij1QE+N0U8GwQTVy0y7aW7D9tV8l5vby4/wJ5HH3/Hz8gnL5f/3JRB4dP7e4z38B);lineShape=1;" vertex="1" parent="1">
                    <mxGeometry x="1129.2693015575421" y="198.5320925943701" width="1.4426095060709272" height="20.559916164058716" as="geometry"/>
                </mxCell>
                <mxCell id="56" value="" style="shape=stencil(7VhJUhtBEHyNrhW9L2eM/0EEwiiMESHAy++dbXkGVbWUhE++cBuNKqdrydp6E6+e72+etpvgnl8O+6/bH7vbl/tN/LQJYfd4vz3sXvC0idebeHW3P2y/HPavj7fH3083Q3I8fdt/H1/4ecTFLDUMVHC/jm9Clxz/vPl8BDzsHk8BTmpXgFglhMuAgL+jAqQkqRBAkuYUIDvxRKXgpWgbcpXkLgN8E69PKFkiOcFDpaQANUpsBBDEeQVoXho5oVsTGsJAvFqka4U63FyZfNL69CaRfH+iRe/i82X5JH2Sr8TeJE7r750TR2IWl+NPDuiMRRK6lS+eREzy5KBOHOqkFSvvCCOcxKrlEUIq//drqzxCQgKwem+VR5ZRea+zssPDxJ9OktHHS6eEMFlfOaGreB2v0hdKnY+XsymJpC9EIeSwSZkUJTNAk2YqHZzMKAcPGlLzJIPRJivBOVZ7g5UPUlnO4HhNUp5jKUtKRr6xIhHF6SBn8awIuSUFVwcFaQzQJOusgcWM1bUsCqwxC4sPzgJaWsrmyooghfgIZcRpwLCK2DDqjmk2XlKnAFNLS6Cpc1I6V0SUkugRTQeuJKkckAwgU+qhGtoT0IKIEQB4bwG0Y1aJaQIwv5YpEEUyKcGouL1aozvzUpY8zRWOA4JOUASOdZ0BMCqFpQ5eVMmQyUt9x2hTiN27bo0WEEjKjcDpVpI7N7rZ3o8THKNGs80ZADZyDnpn6yXPc9R0H8SBtc/zOUrdBKeYhEh05gQga7+CfWwMHqXMWF0kkBmpT/0EADblIdRzynV2Qpn8WpZJ9BLATyp55qWzABJqDO5OJ0RqdAyoYWmaJxtSJycgTEEDMAdkAnhbb9Y+2mmtxAJVDSDSloIVrZhxWzqbNOZ9gVIv+mWYPVEokhqAUalqYmBiZx0Lw5gZ92KktXhM6Dp9Eiob2/HAVZOgno5XMNEsttgi2QztJ+phXHGMSR9b4cdW+N+3QiIfbQNpeYnIBcI1/f1al4icL9Z2ZSuc0Ng/giYQZpHG+nheCLwCPB3AUJlNCFBbM6E0OGeqBNY4ljTDSVol7KlsE47TGjb2SAbwEqbiS8PsFxafABKJG7Y0c6sIALvzQzE3F2YDwGxIdoMZKjFAtoMCvMSmztEDmwU0dkKZ3Bop+QDIxobMy2OZvMQnvHGCoUblgcP3NFvH7ELy4fyF8z8DVBzw8Ha/fbd7eDhej5/+b+/D8ep4lx6vfwM=);lineShape=1;" vertex="1" parent="1">
                    <mxGeometry x="1128.3074515039268" y="199.06352209389934" width="5.352195327585779" height="3.667601600008739" as="geometry"/>
                </mxCell>
                <mxCell id="57" value="now check 3 and arr[st.top] ie 4 so&lt;br&gt;4 bada he to&amp;nbsp;&lt;br&gt;ansvect me st.top dalo&lt;br&gt;st me 3 ka index ie 1 dalo" style="text;html=1;align=center;verticalAlign=middle;resizable=0;points=[];autosize=1;strokeColor=none;fillColor=none;" vertex="1" parent="1">
                    <mxGeometry x="1086.46" y="242.53" width="210" height="70" as="geometry"/>
                </mxCell>
                <mxCell id="58" value="" style="shape=stencil(rVvZchw3DPyafWXxPp4d5z9cZTlSRZFcspzj7wNmi6Mheqa5W5U3HQ3OEASBxjGX8OnH45fvDxdvf7y/vf7+8NfT1/fHS/jl4v3Ty+PD29O7/HQJny/h07fXt4ff3l5/vny9/v79S0f2n/54/bOv8PdVzpncupC3/1z/YI0P//3h1yv8+ellhucJ7ozzFJ4muDeJwkuY4NH4xODNTfBkUjyH+7GzAS/GkdW9yXWCV1PbOTwYb2fNWJOJJoOpfsZ7E8j60cT5oFykqk/Gza/v0njiCb6q9y8mEm1mExS+GUvWz1qdYmkpM3yb9SMHYus5Xg5zfh/RcCbvX7R+usYKw3v1PnlcnTP8bG1iP47sV/BxxjdqP4APzlhizoj3JvL9KrxYLNW/xid6eRGfTeL6VPgyrv+N+DZO8DZ8FPu09+DFe92jzxiMved8ozjDe+wnJhPvOa+YTblLP9XYu/TTTKDruzmyJGsKXd/O6yfxD9Sf1Pk+pkDPN4//bvhoGtFnNk4Fo0z1n0ye/Uni+kzGzv4/tRERTuJFmvWTrWlk/WhsmfGe3pcA6wd6fwOsH00l98UPa9zweXj4E3yczyuLBZL38cbN+szVRHIf/YhuG77R/TpTZ3suYs/EXzm937KtcBu1Kt40jlfsJ5pM9O+0fRaJd0T/gp/tv9SFfhS+2gU31HjhS/z9FT5Suof4RPke4gtln4iv1P8A065t8f7KfgSfif8R/Mx/mh2M6Myeg8bz9et835uj/AfIfNss8Aw/+5/mh4c5wxeNZ/r3wxvv8I1mF8o/tGAC0Y/X8Uvwhfur2R5aXGQ7er/Cbwk+mhI1nt33DO8j94XysabsLdN4J+lTSFrAsQu5+b+dQGA3UtJFeCWW8rg6GMxOIJE9S4qjjTSPZx4LhBGDdgIsi/Gbk9oJMBrXsxBQKzu3YAeN3wuwQC9+Gc6hMQExZGWqZZCpY4Gsc1URYLmGUH992QpPtp0JTgsk4l2EzMeqBdg5CDvP8ATGh2LRAaEJYSRaEr5dQIBdoOQG4d4JsAvUGbTTApTzJrhAlTr5VEZOuxNgahUSXeEJrOyRreZFItCYgBBNeAJNDCLY0maOxwIZtNQo9e3MtYAAyxXtcO07Ac+ct4cbJwIs25VkKWkBmv4V8EuNxs/Sxg3eCTACX93gi3sBcg41jIT7VoE0MvpbBcSRxbv2UCFktWGOhwJC0jxqiQkgDxMBYhpCWyKYRiTWKrxFOzI5SrLpHpXh4FgpsDt3dDPE84lAg4CyEgB3z+JDq0CXCnWV3ZN6EGBqrUDgygjExwKbEvcCJIp+nOuNUbQ1XfPte+BP0GxG1MoFGghkvmkUYGW7/kpAThj96ZsGARYfPvzcPrATr9EPDoIiS326aUCcZrWybnzABFhxv5s3GB/Llvq/Ua0LATC+wrxGAe5dBuU624NF4+MCIWgB6lsrcI1CaxidWYDXWFzRgFeUm7dmAoVGoH4fYA9US+3gpGliby2k3mX4tv9JomFC0Mbpn52Ev4s8dL1DHGX1kp7dwhMqO+s4+jE7gcYEIFLvFHc7GWCp3CHdYM7vkNA0YrCHlIkKJCjMNFoo7bQPn8BYnDvg6yyFKHhLG63NCzm2QJmYbQj9rsCmaXXGQ+7XeDvL6v5IFyCOQ5IUpN/sQkga5OEJrBYiiRbeIFaC7h0OOGlWU5NkUYdq8QLEliQdTch1mUA2BQ7Osxw8AhNttHgiSbvWUqX3IbkDflJZJ6kNkren38Q0YoFUrlK1xgS1wTrc7Vl5xnstwKrp0UGA4O25UMf92hMaNv+RD6peLOcIETZd6ARFgBbXIrYHe8CAWAHIbxWofSGOlysLlvrYEE6AYmKhuZ+3uu/WBdhEU9WDGotypUvDNvcCjJ54yMwyHaVwFuoIeXRrTmrruviYR3fw+EofVGhZMrp1dnd4NiXmdS+8JRrfHIS3RHszFqrkiSZAFi5zpL0NpJO8N2Pv7P1YSOB4b8nq3vmid2X1LNSiN2Yhe+O9N6tnpxa9PQvel/cOLRTeeG/SagK26H1aHW8WvVWwt0XvFvG8N4x43ntGPO9tI573zu1IbTY8780DftH7RzyfLbCaUCxmF6z2h302gupHzbL02QuKV0Ozhc8qWZ2z9NkR2gvXsyaV1mCdDmGZ98PcKKpt+EzrQZAG9tkd1vfUjDGHVa9aze54OosZYH1LzyuYpma/ePIedYRPhVLkqEtNiTeSky4cpUjtM+mKeQqL2TJVs+yzcXR9VRRNllLRrOPRYrYP8ZxMI543tRHPZx8Rz2crEc9nNxHPZ0MRz2dPAb+YbUU8n51FPJ/NRTyf/UU8ny1GPJ9dzppPLmajAb+YvUY8n+3Omn8uZsezTqs+pvnP7q+aNQ+0C5J0kaEzdjp7qvr8PWKySQLj5vfp3wZQ/6nq4v3bAzrbqvTTv22g+Yvihy7S+OL1bKWkcMyfw+xX//aDzqKpbzn4yIHT6WBZsGFVykuUbEAhj/tC4M78kx6omPEPhqzOTPnnSLC6pecKPNguXiZ5BWelBzuqkzs4Jf1Ff3nFxnlglIyX7p1OAVdwr/XOXsbpTgLfqrtPkTAqy4/J6YYrN4L7v3jjcPnh4+O6b0/Pz9dv8/b/1x/jyZ+uH/KFz/8C);lineShape=1;" vertex="1" parent="1">
                    <mxGeometry x="1293.3125327019702" y="159.1081983114488" width="53.2679630309903" height="155.01683695834706" as="geometry"/>
                </mxCell>
                <mxCell id="59" value="" style="shape=stencil(lVrbchs3DP0avWJIgsvLc5r+R2bi1J66dsZxevn7QlW5FgHpYPlmS+doFxfiyhN/+vH45fvDKYUf72+vvz/89fT1/fHEv5xSenp5fHh7epe/Tvz5xJ++vb49/Pb2+vPl6+X/71/OyPNff7z+ef6Fvy+8xBTKmZXCP5dPAiX+74NfL/jnp5drfKKaJnyilCA+twmfqQSI5zjhC3GD+Dj/fqOtQHzoEz7GoYG7hFngyFQrIETqdSYU2pDIQsgzoVPKmDDr6OOTe4Q2Cy1WyEirQpi1KmboSEtCmIVOnRjL0Ga/40gFOZ4lMDXkeULYZsLmyqAIjYLzSjMhBwrYNTRB3Be7hibk4b93CbMv5ULBsYMi1OGORwmd6tIrbZE2R0uKwJQcwylCHno7SpAo4/iSIlSqzolThO760kwoEoiXZCiR8tIrlYRDpSUwlSXDlTzCwlFCobgmdKW8Rmhe9FaEGiguuUYVOyxZukpOXSPkxTNdN4pLR7QWLwNpQqXkBDJFaIuBTAgdFxoqsddOBT1BKpMwEVrAvpSoz8G4RYpISzyUeEWAcckSEhV0ppOuNRrjICC/N2fRlr16739n3gmbVy+lqgmO4aJSa8FHNI0kuxMqFWQHIcz1UmuUHRmU0N3TklZrx7WGlN1zgdXD+Il7hG0Wukdi9EpZ161C6KjmyxRnobtI5RBmtXYeR+ruK83u3fdn3n1C0oSGLJ11EOgbznHyBKXWMvz3qJakMkZhRs6X0lLFcSkPre+ERozUuo2vrwhQS9UQOqw1Sh9KvJIB1XyS0TY2BCCD5JsajJaAa0gkLdkQwBMkqDTzSoggx0V1uh2HGXG1ZiyNikQxU6ma0MArxSD9hVET6vzEsGUOrh33NGcZqyagJCcnMhlCAvG+7e3CNQHEGclQ2jfaGBLcdiZxVyN0Qu6adfd6JgChpcSL5gkRxJmPqvPaDphww9LglYTQDaEBS4sM3DUB1aFSRCZ7RkHYEDv0tTO6jW74irABw0nSjCYwFeB84q06jVaY5M5KbEZLIEHIiatG6IaesFcK15ZGQjfaVJxpcIqwTJBeVZ+4DtWaqyk2Oiz6Io+v95nXR2y7yQi0Zf0EdKZtpMRJMQwBD2bdaCoNnNbjjUIDWTneqDNQYRJNmYErn6jnpk5pFccI5mDtFkfHebA4tPrB1WccOeNgeRtHbDtaP48kdrRA1/WI0wGwaWJwi8HD2w/2MGxaGFy98GIXxqOMONrm6RTr9ZFGn06jOqx5tBPWew+v1TZ4p5cnXhsW6PTtTCNYn3dn3MHDWw7OU27h0cDG4vFEyOLxyMni8UzL4vHQzOLxVM7i8djP4vFc0eCdwaXF48moxePRq8Xj2a7F4+GxxePptMXj8bfF4/m6wTsDfIvHzZ/F4xWExeMdh8XjJYrF4y2NwTtrIIvH/YzF40WWxeNNGY/TsePxKs7i8a7P4J1losXjbaXg5/zorEMtHu9bWc99nYWu4Od6ydkY79l5x+OVNOtu1dl5C15t4fFSnXX94GztWdefzrUAk6+dewesR5/4XgPrdse5NjF8ZfdmfCuDNnUdAF/60GsM506JHteE0Qsc82ScSLO+NxDG6P32HEW37wGGnaab9zB2Dbe7kKiXTrjrPffJS/gyDunB92l6sovFla+N8pE27a0NZ5sqRdeKLyxfX3Lx8sfHXalvT8/Pl6tW19/ru1Xy0eVeFn/+Fw==);lineShape=1;" vertex="1" parent="1">
                    <mxGeometry x="1339.0263333552589" y="159.70821204435896" width="3.3995692787513576" height="152.55244688192838" as="geometry"/>
                </mxCell>
                <mxCell id="60" value="" style="shape=stencil(lVjZbtwwDPyafSVE3XpO0/8IkE2zaJoNNkmPv++4C7kWbU+Qtz1IS+QMyaEP4eb18e7lePDu9e1y/n78dbp/ezyELwfvT8+Px8vpDZ8O4fYQbh7Ol+O3y/n9+f76/eVuspw+/Tj/nJ7w++rnpZbJybs/1x+qeP33w9er+dPpeWGuXnwY7KO0tG/vnX0+Dgz79gF/u8HeSWrEvkkJxt65ffuYpaixD3nfPgWJfrBXacy+9cct8kPizVGcmvwXZl8km/sESZU4IEHGoUolERQnWkfEooRCTzAh+/ZRDCkNDgFJIiAjSaWNDjiBxJBV3BhDjJQWqYiPowMSHSkv8hh0Ug40/h5xSInHgAuMlZOqKMlSmWHqDtlJIdSoKmG8Ug7SCNIVwI1B45KexNCCuDGtRTu7th1wwlgOBVkiwLXW289cP8CeNCR1c4OYPRJtYW1Vcg09iaSpeZvXFntY23lNUsc04Uwl7CvVAtFQ1IwbrjeJ2aF1Pu7RNY9ZWiRut1M6e0Qm5IhJYrEOjByh2qpG1Jk5OGmrvLLpo9rJtkCukLy23koX9qwgqm2VqJDAgLYlDW4p4WqWZjLk+jzdeb431dMkkvugA43TtnK50CSNAKCFeA5AMAfkXn3bDsifWofITkji6+oEQiIt4oKNIbAOUy1otdIBqqB9sShkFkPrpJlhVlqb08hf8SiwE4qVYSBqJIWg2Q5QVAITVhpXpRB7F9xTnhsODDjXqbxwiGweSlUbM2PGrBAWSWVzodhhCNRYs4D9qHpAC9rkpax4l9nsFDeOqWm+s1pztjuidJjAAGQmQ1NxMozjhkNitfZZBwhHb1jkegfZWxgsi1zP8/YcjDatgFm5MrSDcxZm2w7ouSsHTxxKs6oKTPJc6HlDPQxrpmBWg6c6PtialcOQr8piQL8YT4CUZDFMWRqBwy+ZxAC1XMdhmHOHcg/pYBzmbXGbS6s2nOf1eNsBenwEDotKJvSOaoGbZBmjd7QTHbKM4ZDQVccCClwyYM0x5MOOz7Y9hFjGtGIBzcxhVaI665ptB7WrFXQHzVJayRIqAUKyswrCiTx/2rBNk+lb+9549moDYPN8Pn62j3SUZEvUSTYxVtiNHvas/KN9izQ9n9h7215wf7a+6Or+kQLsVs8PUsh9nK18jDq2/Tv7lgf2bEtd7ajKZ4izKhizmuXT2b7SuGjuY37xkoqi9al3ih+a48P/15cPp6en69vP5f/2dSd+ur4qDbd/AQ==);lineShape=1;" vertex="1" parent="1">
                    <mxGeometry x="1311.9226800324263" y="289.8230685533099" width="9.7158170760747" height="14.166944009854348" as="geometry"/>
                </mxCell>
                <mxCell id="61" value="" style="shape=stencil(lVdJchsxDHzNXFHcl7Pj/MNVliNVFMkly1l+H0ymGA3AUdO+jSg0sTfAyT+87Z9ed5Mzb9fL+fvu1+H5up/8l8m5w2m/uxyu/DX5x8k/vJwvu2+X8/vpefn9+jRLzl8/zj/nG34vuFgplhnlzJ/lxFMO/w6+LvLHw2ktn6lYIW8tpfIpQCFrAIAtSgLgMll7H5AM2ShdsFQTBCSpwScqDgAsOScAwZJHGhw5LwCRjfQA4MkoQKEMwsqAJJ1OmQKKUmhBbICcyIBMF9+C2ACVMw18qE5r4JOYASBrH6pvxbIJsMaQMRIRW6S3VRSqMnM1wXKtgaJMBF9hQLmWTC5LQCUDaiPnzqRKGRUTJzbIDrrFYbuFEtXYqQCZCLnzusImDVzOuQtTvA/wkVLQiUBE4wMFZRKnugJA6jRwNSGnXcvTql4ToIG5h1WBc0cADUxlfQtZoCEbzX0MMKC+i2nEtQIgGii16znXyG27IVIjrlVYPepq5u8qAYEyKA0GKDpmnQ4UH//tVaZzm2L3nNZ5KNCkwoSvMl0hlXHiatWACgA8g3xHGxX1tKFQNADlYQZ0JiFAx62DAcH3y6AOJhBXsvR4MOIsFenwYIY6KtLfwZD2FNTagLeAbh4O1gyeJPL+0R7T6O2DixJ3gczXYBPrJttg0yMvxTm+QDw33f+taR2xnVyro88tB663iYIkOtPofrsYnI6mgTTnSgvGTR6NWJ5nqn+xPNdi0fYje3giJ20/8jc6TaI4nrwiqPGK83Xr1Y+Vw6ffFUN5/rg9Yl4Ox+PyBlr/rx89fLQ8mPzjXw==);lineShape=1;" vertex="1" parent="1">
                    <mxGeometry x="1313.6456867529964" y="266.33887540899946" width="1.9048299862484441" height="13.90969182937738" as="geometry"/>
                </mxCell>
                <mxCell id="62" value="ans vect=[ -1,3,3 ]" style="text;html=1;align=center;verticalAlign=middle;resizable=0;points=[];autosize=1;strokeColor=none;fillColor=none;" vertex="1" parent="1">
                    <mxGeometry x="1115" y="310.12" width="120" height="30" as="geometry"/>
                </mxCell>
                <mxCell id="63" value="[1,3,2,4]" style="text;html=1;align=center;verticalAlign=middle;resizable=0;points=[];autosize=1;strokeColor=none;fillColor=none;" vertex="1" parent="1">
                    <mxGeometry x="1360" y="179.6" width="70" height="30" as="geometry"/>
                </mxCell>
                <mxCell id="64" value="" style="shape=stencil(lVjZctswDPwav2JIgudzmv5HZuLUnrpxxnF6/H2hapQaoL203mQZK+JYAktu+OF99/S23QT3fj4dv29/7Z/Puw1/2YSwf91tT/uzPG34ccMPL8fT9tvp+PH6PP9+e5osp6cfx5/TF37PuNaIeUIF92d+46jFfy++zvaH/eulfaHpvwv7SDUA+0S5KftKnoF9o5yUvXfE7TbAO0fOaQRTQEtUygaQiT0AZBuDb8snbgXNeoXA5EAQLXaAskR1HcCUigKwxzGIA1EDEjW0QqCcdaEdVZTWQFw1IJNDLgXyGpA8JcSlYGNIwsYKAJ6aJnf+TMMtQNVBZyELXqHqwhXG+8dT0SuUOgToGCpj8gnAa0ChgmMw9JY3jCttAXGp/VVAoKhjll3uQQiRmu4BsmUrYJIXJnWAlIBDTBwsgAGAP4l2AQiAqylQ6gAetIBcbFeaVgAuVbdU9QIQETEEEC0gozpnimwBsGdIlrpCB9zGbOEaRcCkGil5CygghhKuuNQAl6SlZJ3Wiwlzna3BNu8RQpp7CWuc8mnJyp1hZ6qr8hpskxkUrhs/I2ZQ6OwR9WTAho56iNwsPcZbANo+sVDsdgPcoH2OcAsonWwYNBnp02b6DNqY6AzXAVCjlA2aTNC4E68GlEWF3DkaamePZ4+k3MhJPNyqJd5geoq9jncwnuuyTe6c/8Ix/f2BwKjktP8DBVOoaUYMJFJZ1PudGky6o7YfiDzhg453oCKz9X8gU7sRNdDBicoqoR07e6zk2fJ5cFTwS1e78yyy9rDjlo5z53EqWv/xcS1YDYJPg46yZjM+bIqs88a8gNxkK+ocJZR6qWQ19ij1Uqtm7X0GVAhWq0jx0ESKtptjFZGSlcnYXhRmbCv8kc7nbD5RvFX2rrUfHEmzzSeql8yiav1HdFh9tTG0l4f/9ygv+8Nhvoa5/N/eu8ir+c6GH/8C);lineShape=1;" vertex="1" parent="1">
                    <mxGeometry x="1381.5077303856679" y="202.19499582852904" width="0.26381866504819773" height="13.753225490893454" as="geometry"/>
                </mxCell>
                <mxCell id="65" value="" style="shape=stencil(7VnLctswDPwaXzEEwec5bf8jM3EaT9M4k6Svvy9UD1kTlNb1rYfcFIcrEsBiAVA7uXl9uH3e77x7fXs5ftn/ONy9Pezkw877w9PD/uXwpk87+biTm/vjy/7zy/Hb093p7+fbZeXy9PX4fXnDzxNOMjlZUN79Ov3ClYT//PLpBHg8PJ0DPDEPAJ8o122Az5TjAJBI0QFAoOIGQPDkMwAwhToAoiMBAC7k8gioVCIABIojIFUKCQC4ObEBcqHotwGFwmhzSRTD9vpEfjS5esple30kF8b1iQpYrwaPQasFujS0CJ2tr8BeoWLOr7QD5xEKbNdn8H7frDtbX4E/vY0XO0cOsJQtq5cNQN4weW/XJ2CwW3m/AINdc99ZAAow2BGLXe/hedxI0JopAULoerbrHUgxPU+yBA3g/FOCVYaEkOa9nmCqQkC2EslI0Kw6hs6jBo8bpEIJEUJTwIhQgYzgPOkizsmFoyMnpLQ0WgdE8iMpfCUPgrbI1ugljSOSFeFmYs8zoQTcKsHmQYZe1XpWRydJK3DruqUHGnnnmg/W1yfrIiwTWomM0GktQ+ujFbrYor5OU2fLsRKxgMqUtLqOPFVeMdqhtkLULRCqIHNyaJzpIXCwQ9DSWMcdJFEFNhRp0tAzgaG6FyXNGLUQYcFfxHD0UhRisEOdbFAA6nJUzuNI1BjIAS8pwOpFwE2LmzRb2ZXxmewWqfUBm0YYtmbYPa64qSfsZiDGyKlKesANLTMhWoAgQLKSpAAGsqoANxmdgWbUOIU6twZ0C+DZxgF1wApgE7gIlV4Bpl1QMkUg3AowshF7/dryUpgSQhCXVIaKBUAvKXPyVYBCma86krZckw3Q6Gor7iW31ial/xq4OiXQBWpom2ny4QL5KvEEgPTWJuC6BMpTHC6maL1OBK4FlNCa2V4gurStAxyFqaIwiHSOrQb2IlfhhJRdU/cOEBiHFC01/IXKztMo71o3tN6cJGs061yJpk7fDnDWnaB2T52YjcxQAk7Suu9Hm1ObI9bbw6mu48FfYqvJZxYHBPC25mrDh4ikLXQZgyAOHkk9YiaT0Ge5rTHANHDalKJRjPuk053a2b51PWLuU5S8AV3AOBvm3GVq43rEbKAdHdogWd5VbRkRj96vO96vO/7n6w5nx1ptyFAV9/bCsnIr6xuENgWzRDg3Z6taOTcPbF2ImgvIlGHGqKbMXYUghk6Tfyht6tvSRdNwqpCiNmTJ+tFJWpEDuskuVub0FagzErGTAqcWyC2AaRIUgOZUCY32ZwWtIOUKlLMFoJKsJdNPJTOimhztvdayA7JhuvxmPM0rwDSci5eQ/CqZkwVcuHayR9LeC3kpW4VnLDArgALv5pYjFQtAV0nXfwq6DNCHv1+e7g+Pj6cPV+f/t1+q9KfTVy75+Bs=);lineShape=1;" vertex="1" parent="1">
                    <mxGeometry x="1378.6775795197375" y="201.97612471583443" width="6.006518198376868" height="5.469617764764345" as="geometry"/>
                </mxCell>
                <mxCell id="66" value="now arr[st.top] bada he 1 se to&amp;nbsp;&lt;br&gt;ansvect me dalo st.top ko and&amp;nbsp;&lt;br&gt;st me dalo index=0 ko" style="text;html=1;align=center;verticalAlign=middle;resizable=0;points=[];autosize=1;strokeColor=none;fillColor=none;" vertex="1" parent="1">
                    <mxGeometry x="1339.03" y="210.47" width="190" height="60" as="geometry"/>
                </mxCell>
                <mxCell id="67" value="ans vect=[ -1,3,3,1 ]" style="text;html=1;align=center;verticalAlign=middle;resizable=0;points=[];autosize=1;strokeColor=none;fillColor=none;" vertex="1" parent="1">
                    <mxGeometry x="1341.58" y="280.25" width="130" height="30" as="geometry"/>
                </mxCell>
                <mxCell id="68" value="" style="shape=stencil(lVjLctswDPwaXzHgmzyn6X9kJk7taRpnHKePvy9YD2UBstb1TZZ3JYJYLEBtwsPH7ul9u/H8cToevm9/7Z9Pu034svF+/7bbHvcnudqEx014eDkct9+Oh8+35/Pv96eO7Fc/Dj/7E36feUwhd5LnP+cbtVJo/+58PeNf928zfCDnNT6RK+v4Ql7jSyOX1vGOKVdN8FQYECI1TciRAiI0KpqQEnFeJ/hIVRNiJlfBHjF5pwihUIyAkCg2RfCVClhSZIp6W72jFABBdikpgkuUHSA0YtYETwEEnSRNQRMcMXhDyhQMQaICMaRGtVgCykMOY8UzAiNCGX8PQhtrvC5upqo3qULplTiSNIkbFkOp5HXEaaTxKr46aloWcSTlOj4NWU5CpQRSJt6QtYr8WOBVfBNRGtURgzpowdYyw/W0PLzqgvfAvFqjHA2eQb4EX7J9PopXFJptvBjfotnP4DFexxtGSayYKdsqTpRAAfQXGPclDwTX8aYdQMH1DdIFIDeQICQB+vndI3AA2VlCwikw1ttNBecgsgnBAatuzdpcoYI16vWCMmywS3ykiFNm1uNHTv4zXkcRxxttTcYbNckGz3g9RhI382Ukx1TukrQbRb2K1x4dYM+4WpOoTy6LPlO5gdemUu80rUYJb6gxRamYG65lXLcPedh27yQs+kCvemQTwe6pECraVDdcZDbdoDT3VmkInhLQUe/FpleGMV2sNnuzSyIkkIc+TZigM3ngvn1cMUvCc2yZNnEiVEqg+PvAZZYkuQfb2kc6MykzHksXQ+MNP+pjabSEAoLug68Zihyshz5amzfgI06c8joR0jCp1eOBmRMc7LNyADHyDtLVwJICL7pOgQUkXalp15CNRtJwi8RlWSSIoatfE0S/eDqiogk1jGPV2llWx9yk9YCYwzidTPhMEeAXh7pZr1ghmFbevR/0Nh7lPsMjT+Ix2Uz4Cnsh22puIgqQY7aF0HBr49EoJ3yiADK86LTd9zHePN9DjQpeV760CXT+mOQyFxBcjxFQlWEPmB3b4+KlC63p566PP7fxcnH50vSyf309f6ia/2+/TMmt81et8PgX);lineShape=1;" vertex="1" parent="1">
                    <mxGeometry x="1552.8460240129898" y="226.97700277300544" width="192.22440518713393" height="12.955156888502492" as="geometry"/>
                </mxCell>
                <mxCell id="69" value="" style="shape=stencil(lVjZctswDPwav2IIguDxnKb/kZk4tadpnHGcHn9fuC4VE5LWkzdZXpAgjl1QG7l72z28bjcxvJ2Oh+/bX/vH024jXzYx7l922+P+ZE8bud/I3dPhuP12PLy/PF5+vz6ckeenH4ef5xV+X+xYSdrZKoY/lzeBUvn34usF/7x/ucLHTKUO+EIxr+OlUdQBz0K5rRukQi2NBpWCrBto6et1gxiphnWDXEhHl+wMAlwqhcJ4ZmHSum5QlXIcDZQURLVFKqNLFrcEdmiF6njoJFTADhwChTBaNBKQuVYpjT6pHQIZJOLRIDNVYFCtdMYw5dqXWE5EpShj8aW+xHKqbb08GjRqwCXNPq6WywgSkZR4PENtvUOWG0KojcXUBBaTVbM6g0zKYAeSsYEaPnOkFGd4VEqks/ULSEKg0jw+goYOnVAmfO0Nu4IPPOILFXBew6uP53/KWcHLLP4MEhZ69Ca89oitxLNkj2eQ30jZ4RM1EH+Z1Y92KlguaUri8QL8n7y9wjewvnr6tXhm4L9SmeU3IUHoVHtVPxH7nzy+oZbvzHxVz6g+Te/m/QjiE3s3TQL4wd0rBVRnDVxBgJjCDJ9gAyf2AUICa97OGjjABnPKZAmOoAFCT+dVAWH/nbhagRYYH59ghYQVSdz66QbhfhLPfQCaDLhz6nLFcSeESZSspEFEU/RTncleADWtpmJOJwMcDnKi7KRb+2S4rPUznczWZqDqKnvpzgKHLhs/8kgUOo0LywMOU3QGQgkZRGpjpm26RWOdzQ6Oe22sayBKdbaDYPG2gSm7WVah+lniXKYFF58mn7gbVwQbodx4fZY4NOBkkpEw7IogSDFtJBoTx9YhiAHYU4ZSQhLOxC5vUEI4eA03UUEMHzxl2LSP/Al+UBZ4hzqvP1K8cRRgVMM7jWXKoEwtPm5GY0gvhs9jhjG7cPQVEaCC2B00FIcP6LxCtXo8ylfy+Q3wYvPZW/htvD18XPmf9s/Ply8G1//7TwT26vJ5Qe7/Ag==);lineShape=1;" vertex="1" parent="1">
                    <mxGeometry x="1726.7690095642624" y="217.84983593489324" width="25.583519459604457" height="28.79598083221511" as="geometry"/>
                </mxCell>
                <mxCell id="70" value="reverse for real ans" style="text;html=1;align=center;verticalAlign=middle;resizable=0;points=[];autosize=1;strokeColor=none;fillColor=none;" vertex="1" parent="1">
                    <mxGeometry x="1570" y="191.84" width="130" height="30" as="geometry"/>
                </mxCell>
                <mxCell id="71" value="ans vect=[ 1,3,3,-1 ]" style="text;html=1;align=center;verticalAlign=middle;resizable=0;points=[];autosize=1;strokeColor=none;fillColor=none;" vertex="1" parent="1">
                    <mxGeometry x="1745.07" y="184.32999999999998" width="130" height="30" as="geometry"/>
                </mxCell>
                <mxCell id="72" value="arr = [1,3,2,4]" style="text;html=1;align=center;verticalAlign=middle;resizable=0;points=[];autosize=1;strokeColor=none;fillColor=none;" vertex="1" parent="1">
                    <mxGeometry x="1745.07" y="158.98000000000002" width="100" height="30" as="geometry"/>
                </mxCell>
                <mxCell id="73" value="ans vect when seen as &lt;br&gt;values and not &lt;br&gt;indexes=&lt;br&gt;[ 3,4,4,-1 ]" style="text;html=1;align=center;verticalAlign=middle;resizable=0;points=[];autosize=1;strokeColor=none;fillColor=none;" vertex="1" parent="1">
                    <mxGeometry x="1745.07" y="213.98" width="150" height="70" as="geometry"/>
                </mxCell>
            </root>
        </mxGraphModel>
    </diagram>
</mxfile>